<svg width="18" height="22" viewBox="0 0 18 22" fill="none" xmlns="http://www.w3.org/2000/svg">
<path d="M15 9.00125H3.14L6.77 4.64125C6.93974 4.43704 7.0214 4.17375 6.99702 3.90933C6.97264 3.6449 6.84422 3.40099 6.64 3.23125C6.43578 3.06151 6.1725 2.97985 5.90808 3.00423C5.64365 3.02861 5.39974 3.15704 5.23 3.36125L0.23 9.36125C0.196361 9.40898 0.166279 9.45911 0.14 9.51125C0.14 9.56125 0.14 9.59125 0.0700002 9.64125C0.0246737 9.75591 0.000941121 9.87796 0 10.0013C0.000941121 10.1245 0.0246737 10.2466 0.0700002 10.3613C0.0700002 10.4113 0.0699999 10.4413 0.14 10.4913C0.166279 10.5434 0.196361 10.5935 0.23 10.6413L5.23 16.6413C5.32402 16.7541 5.44176 16.8449 5.57485 16.9071C5.70793 16.9694 5.85309 17.0015 6 17.0013C6.23365 17.0017 6.46009 16.9203 6.64 16.7713C6.74126 16.6873 6.82496 16.5842 6.88631 16.4679C6.94766 16.3515 6.98546 16.2242 6.99754 16.0932C7.00961 15.9622 6.99573 15.8302 6.95669 15.7046C6.91764 15.579 6.8542 15.4623 6.77 15.3613L3.14 11.0013H15C15.2652 11.0013 15.5196 10.8959 15.7071 10.7084C15.8946 10.5208 16 10.2665 16 10.0013C16 9.73604 15.8946 9.48168 15.7071 9.29415C15.5196 9.10661 15.2652 9.00125 15 9.00125Z" fill="black"/>
</svg>
