<svg width="33" height="32" viewBox="0 0 33 32" fill="none" xmlns="http://www.w3.org/2000/svg">
<path fill-rule="evenodd" clip-rule="evenodd" d="M8.43973 27.7603C9.60897 27.7603 10.5604 28.7101 10.5604 29.8793C10.5604 31.0486 9.60897 32 8.43973 32C7.27049 32 6.32069 31.0486 6.32069 29.8793C6.32069 28.7101 7.27049 27.7603 8.43973 27.7603ZM26.9123 27.7603C28.0831 27.7603 29.0346 28.7101 29.0346 29.8793C29.0346 31.0486 28.0831 32 26.9123 32C25.743 32 24.7932 31.0486 24.7932 29.8793C24.7932 28.7101 25.743 27.7603 26.9123 27.7603ZM1.43772 0.0155359L4.84391 0.605069C5.3925 0.701687 5.81009 1.15694 5.85758 1.71372L6.24241 6.30061L7.67342 6.30123C7.90693 6.30133 8.13797 6.30144 8.36656 6.30154L10.9938 6.30279C11.2032 6.30289 11.4102 6.303 11.615 6.3031L14.5158 6.3047C14.6981 6.3048 14.8781 6.30491 15.056 6.30502L17.0888 6.30631C17.2498 6.30642 17.4088 6.30653 17.5658 6.30664L19.3537 6.30796C19.4949 6.30807 19.6342 6.30818 19.7715 6.30829L21.3304 6.30963C21.453 6.30974 21.5738 6.30985 21.6929 6.30997L22.7175 6.31099C22.8262 6.3111 22.9332 6.31121 23.0386 6.31133L24.2251 6.3127C24.3177 6.31282 24.4087 6.31294 24.4981 6.31305L25.4999 6.31445C25.5776 6.31457 25.6538 6.31468 25.7287 6.3148L26.3654 6.31587C26.4321 6.31598 26.4975 6.3161 26.5617 6.31622L27.2709 6.31766C27.3251 6.31778 27.3782 6.3179 27.4301 6.31802L27.8666 6.31911C27.9118 6.31924 27.9559 6.31936 27.999 6.31948L28.4669 6.32096C28.502 6.32108 28.5361 6.3212 28.5693 6.32133L28.8441 6.32245C28.872 6.32257 28.8991 6.3227 28.9254 6.32282L29.2033 6.32434C29.2235 6.32446 29.243 6.32459 29.2618 6.32472L29.4133 6.32587C29.4282 6.326 29.4426 6.32613 29.4563 6.32625L29.5654 6.32742C29.5759 6.32755 29.586 6.32768 29.5955 6.32781L29.6697 6.32898C29.6767 6.32911 29.6833 6.32924 29.6896 6.32938L29.7365 6.33056C29.7408 6.3307 29.7448 6.33083 29.7485 6.33096L29.7825 6.33257C29.7846 6.3327 29.7865 6.33283 29.7883 6.33297C29.8043 6.33446 29.8066 6.33473 29.809 6.335C30.7211 6.46765 31.5236 6.94419 32.0705 7.67783C32.6175 8.40983 32.8467 9.31215 32.7157 10.2161L31.1616 20.9554C30.8685 22.9991 29.0934 24.5401 27.03 24.5401H9.14586C6.98915 24.5401 5.16324 22.8567 4.98801 20.7032L3.48798 2.86331L1.02013 2.43753C0.350355 2.31963 -0.0967079 1.68588 0.0179235 1.0161C0.13583 0.346329 0.782679 -0.08927 1.43772 0.0155359ZM7.34489 8.75756L6.44875 8.757L7.43621 20.5018C7.50827 21.4058 8.24682 22.0837 9.14913 22.0837H27.0267C27.8799 22.0837 28.6086 21.4483 28.7298 20.605L30.2855 9.86401C30.3216 9.60855 30.2577 9.35309 30.1021 9.14675C29.9482 8.93878 29.7222 8.80449 29.4667 8.76847C29.4549 8.76892 29.4266 8.76933 29.3827 8.76971L29.2046 8.77072C29.1673 8.77088 29.1263 8.77102 29.0818 8.77115L28.154 8.77256C28.0758 8.77262 27.9944 8.77267 27.91 8.77271L25.7288 8.77262C25.6071 8.77257 25.483 8.77252 25.3568 8.77247L22.8675 8.77095C22.7184 8.77085 22.5676 8.77073 22.4153 8.77062L21.0067 8.76949C20.8463 8.76935 20.6847 8.76922 20.5219 8.76908L19.0299 8.76777C18.8614 8.76762 18.6921 8.76746 18.5221 8.76731L17.4944 8.76636C17.322 8.7662 17.149 8.76604 16.9757 8.76588L15.4074 8.76441C15.2325 8.76425 15.0575 8.76409 14.8825 8.76392L13.8334 8.76295C13.6588 8.76279 13.4844 8.76263 13.3103 8.76247L12.2701 8.76152C12.0976 8.76137 11.9256 8.76122 11.7542 8.76106L10.2304 8.75975C10.0635 8.75961 9.89748 8.75948 9.73247 8.75934L7.80679 8.75788C7.65138 8.75777 7.49739 8.75766 7.34489 8.75756ZM24.3966 12.3536C25.0745 12.3536 25.6248 12.9039 25.6248 13.5818C25.6248 14.2598 25.0745 14.81 24.3966 14.81H19.8572C19.1776 14.81 18.629 14.2598 18.629 13.5818C18.629 12.9039 19.1776 12.3536 19.8572 12.3536H24.3966Z" fill="white"/>
</svg>
