<svg width="17" height="17" viewBox="0 0 17 17" fill="none" xmlns="http://www.w3.org/2000/svg">
<path d="M12.5 1H5C2.92893 1 1.25 2.67893 1.25 4.75V12.25C1.25 14.3211 2.92893 16 5 16H12.5C14.5711 16 16.25 14.3211 16.25 12.25V4.75C16.25 2.67893 14.5711 1 12.5 1Z" stroke="#E5E5E5" stroke-linecap="round" stroke-linejoin="round"/>
<path d="M11.75 8.02724C11.8426 8.65142 11.736 9.2889 11.4453 9.849C11.1547 10.4091 10.6949 10.8633 10.1312 11.147C9.56759 11.4307 8.92884 11.5294 8.30585 11.4292C7.68285 11.3289 7.10733 11.0348 6.66114 10.5886C6.21495 10.1424 5.92081 9.56689 5.82056 8.9439C5.72031 8.3209 5.81906 7.68216 6.10275 7.11852C6.38645 6.55488 6.84065 6.09504 7.40075 5.80442C7.96085 5.51379 8.59832 5.40718 9.22251 5.49974C9.8592 5.59415 10.4486 5.89084 10.9038 6.34597C11.3589 6.8011 11.6556 7.39055 11.75 8.02724Z" stroke="#E5E5E5" stroke-linecap="round" stroke-linejoin="round"/>
<path d="M12.875 4.375H12.8825" stroke="#E5E5E5" stroke-linecap="round" stroke-linejoin="round"/>
</svg>
