<svg width="21" height="19" viewBox="0 0 21 19" fill="none" xmlns="http://www.w3.org/2000/svg">
<path d="M18.0746 2.13403L18.0742 2.13364C17.5531 1.62279 16.9386 1.21682 16.2643 0.937812L16.2637 0.937544C15.5642 0.646992 14.814 0.498272 14.0566 0.500015L14.0555 0.500018C12.9915 0.500016 11.9543 0.791327 11.0534 1.34092L11.0533 1.34093C10.8378 1.47241 10.6334 1.6166 10.44 1.77349L10.125 2.02897L9.81003 1.77349C9.6166 1.6166 9.4122 1.47241 9.19665 1.34093L9.19664 1.34092C8.29573 0.791327 7.25855 0.500016 6.19453 0.500016C5.42745 0.500016 4.68646 0.646726 3.98633 0.937546L3.98579 0.937771C3.30901 1.21797 2.69955 1.62066 2.17564 2.13379L2.17496 2.13445C1.65459 2.64217 1.23891 3.24707 0.951465 3.91485L18.0746 2.13403ZM18.0746 2.13403C18.5945 2.64255 19.0103 3.24756 19.2987 3.9152L18.0746 2.13403ZM5.08292 13.8451L5.08297 13.8452C6.15315 14.8335 7.22009 15.6707 8.03168 16.2682C8.4371 16.5666 8.77782 16.8046 9.02208 16.9709C9.1442 17.054 9.24207 17.1192 9.31169 17.1649C9.34652 17.1878 9.37414 17.2057 9.39408 17.2186L9.41772 17.2337C9.42262 17.2368 9.42516 17.2384 9.4259 17.2389C9.42612 17.239 9.42618 17.2391 9.42611 17.239L9.43404 17.2439L9.43399 17.244L9.98849 17.5996C9.98856 17.5997 9.98863 17.5997 9.9887 17.5997C10.0707 17.6519 10.177 17.6519 10.259 17.5997C10.259 17.5997 10.2591 17.5997 10.2592 17.5996L10.8137 17.244L10.8138 17.2439C10.8953 17.1917 13.0188 15.8247 15.1649 13.845L5.08292 13.8451ZM5.08292 13.8451C3.79107 12.6525 2.76238 11.4865 2.02087 10.3811C1.55305 9.68277 1.19207 8.99874 0.942698 8.34773C0.645351 7.57014 0.5 6.81742 0.5 6.10548C0.5 5.3463 0.652473 4.60964 0.951449 3.91489L5.08292 13.8451Z" stroke="black"/>
</svg>
