<svg width="419" height="365" viewBox="0 0 419 365" fill="none" xmlns="http://www.w3.org/2000/svg">
<rect width="419" height="365" fill="white"/>
<path d="M165.812 243.856C166.212 243.888 166.588 243.856 166.94 243.76C167.308 243.648 167.644 243.488 167.948 243.28C168.268 243.072 168.556 242.832 168.812 242.56C169.084 242.272 169.316 241.968 169.508 241.648C169.508 241.984 169.508 242.312 169.508 242.632C169.524 242.952 169.556 243.28 169.604 243.616C169.332 243.488 169.068 243.448 168.812 243.496C168.556 243.544 168.292 243.608 168.02 243.688C166.516 244.168 165.092 244.344 163.748 244.216C162.42 244.104 161.252 243.712 160.244 243.04C159.236 242.352 158.436 241.408 157.844 240.208C157.268 238.992 156.98 237.536 156.98 235.84C156.98 234.624 157.14 233.504 157.46 232.48C157.78 231.44 158.26 230.552 158.9 229.816C159.54 229.064 160.324 228.48 161.252 228.064C162.196 227.632 163.284 227.416 164.516 227.416C165.124 227.416 165.716 227.472 166.292 227.584C166.884 227.68 167.476 227.816 168.068 227.992C168.292 228.056 168.548 228.12 168.836 228.184C169.124 228.232 169.38 228.216 169.604 228.136C169.54 228.456 169.5 228.776 169.484 229.096C169.484 229.416 169.484 229.736 169.484 230.056C169.116 229.4 168.66 228.872 168.116 228.472C167.572 228.056 166.956 227.848 166.268 227.848C165.596 227.848 165.012 227.984 164.516 228.256C164.02 228.512 163.588 228.856 163.22 229.288C162.868 229.704 162.572 230.192 162.332 230.752C162.108 231.296 161.924 231.864 161.78 232.456C161.652 233.032 161.564 233.608 161.516 234.184C161.468 234.744 161.444 235.248 161.444 235.696C161.444 236.128 161.46 236.624 161.492 237.184C161.54 237.744 161.62 238.32 161.732 238.912C161.86 239.488 162.02 240.056 162.212 240.616C162.42 241.176 162.684 241.688 163.004 242.152C163.34 242.6 163.732 242.984 164.18 243.304C164.644 243.608 165.188 243.792 165.812 243.856ZM179.406 244C179.55 243.664 179.662 243.272 179.742 242.824C179.838 242.36 179.91 241.88 179.958 241.384C180.022 240.888 180.062 240.408 180.078 239.944C180.094 239.464 180.102 239.04 180.102 238.672C180.102 238.24 180.102 237.744 180.102 237.184C180.118 236.624 180.078 236.08 179.982 235.552C179.902 235.008 179.758 234.528 179.55 234.112C179.342 233.68 179.022 233.384 178.59 233.224C178.446 233.176 178.23 233.152 177.942 233.152C177.67 233.152 177.35 233.24 176.982 233.416C176.63 233.576 176.254 233.848 175.854 234.232C175.454 234.6 175.062 235.128 174.678 235.816C174.678 236.04 174.67 236.248 174.654 236.44C174.654 236.632 174.654 236.84 174.654 237.064C174.654 237.576 174.662 238.136 174.678 238.744C174.694 239.352 174.726 239.968 174.774 240.592C174.838 241.2 174.918 241.8 175.014 242.392C175.126 242.984 175.27 243.52 175.446 244H170.574C170.702 243.6 170.806 243.088 170.886 242.464C170.966 241.824 171.03 241.16 171.078 240.472C171.126 239.784 171.158 239.12 171.174 238.48C171.19 237.824 171.198 237.28 171.198 236.848C171.198 236.432 171.19 235.896 171.174 235.24C171.174 234.568 171.15 233.88 171.102 233.176C171.07 232.472 171.014 231.8 170.934 231.16C170.854 230.52 170.742 230.016 170.598 229.648C171.414 229.616 172.222 229.448 173.022 229.144C173.838 228.84 174.598 228.488 175.302 228.088C175.19 228.6 175.094 229.16 175.014 229.768C174.934 230.376 174.87 231 174.822 231.64C174.774 232.28 174.734 232.92 174.702 233.56C174.686 234.2 174.678 234.8 174.678 235.36C174.838 235.024 175.046 234.696 175.302 234.376C175.558 234.04 175.854 233.736 176.19 233.464C176.542 233.192 176.95 232.976 177.414 232.816C177.878 232.64 178.398 232.552 178.974 232.552C179.566 232.552 180.142 232.632 180.702 232.792C181.262 232.936 181.758 233.16 182.19 233.464C182.622 233.752 182.966 234.128 183.222 234.592C183.478 235.056 183.606 235.6 183.606 236.224C183.606 236.736 183.59 237.248 183.558 237.76C183.542 238.256 183.534 238.76 183.534 239.272C183.534 239.592 183.542 239.968 183.558 240.4C183.574 240.816 183.606 241.248 183.654 241.696C183.702 242.144 183.766 242.576 183.846 242.992C183.942 243.392 184.062 243.728 184.206 244H179.406ZM191.895 241.888C192.519 241.888 193.127 241.792 193.719 241.6C194.311 241.392 194.863 241.144 195.375 240.856C195.119 241.928 194.599 242.768 193.815 243.376C193.047 243.968 192.055 244.264 190.839 244.264C189.943 244.264 189.143 244.112 188.439 243.808C187.735 243.504 187.143 243.088 186.663 242.56C186.183 242.032 185.815 241.408 185.559 240.688C185.303 239.968 185.175 239.184 185.175 238.336C185.175 237.376 185.319 236.536 185.607 235.816C185.911 235.08 186.327 234.472 186.855 233.992C187.383 233.496 188.023 233.128 188.775 232.888C189.527 232.648 190.359 232.536 191.271 232.552C191.767 232.568 192.279 232.64 192.807 232.768C193.335 232.88 193.807 233.064 194.223 233.32C194.655 233.56 195.007 233.864 195.279 234.232C195.551 234.6 195.687 235.04 195.687 235.552C195.687 236.032 195.559 236.448 195.303 236.8C195.047 237.136 194.711 237.424 194.295 237.664C193.895 237.904 193.431 238.096 192.903 238.24C192.391 238.384 191.863 238.496 191.319 238.576C190.791 238.656 190.279 238.712 189.783 238.744C189.287 238.76 188.855 238.768 188.487 238.768C188.599 239.712 188.911 240.472 189.423 241.048C189.951 241.608 190.775 241.888 191.895 241.888ZM188.487 238.408C188.999 238.344 189.503 238.24 189.999 238.096C190.495 237.936 190.935 237.72 191.319 237.448C191.703 237.176 192.015 236.84 192.255 236.44C192.495 236.024 192.615 235.528 192.615 234.952C192.615 234.728 192.583 234.488 192.519 234.232C192.455 233.976 192.359 233.744 192.231 233.536C192.103 233.312 191.935 233.128 191.727 232.984C191.519 232.84 191.271 232.768 190.983 232.768C190.407 232.768 189.943 232.992 189.591 233.44C189.239 233.872 188.967 234.392 188.775 235C188.599 235.608 188.487 236.232 188.439 236.872C188.407 237.512 188.423 238.024 188.487 238.408ZM201.065 237.496C201.177 238.28 201.449 238.968 201.881 239.56C202.329 240.136 202.865 240.584 203.489 240.904C204.113 241.224 204.793 241.408 205.529 241.456C206.265 241.488 206.993 241.344 207.713 241.024C207.569 241.568 207.337 242.04 207.017 242.44C206.713 242.84 206.353 243.176 205.937 243.448C205.521 243.72 205.057 243.92 204.545 244.048C204.033 244.192 203.505 244.264 202.961 244.264C202.065 244.264 201.257 244.128 200.537 243.856C199.817 243.584 199.201 243.2 198.689 242.704C198.177 242.208 197.785 241.608 197.513 240.904C197.241 240.184 197.105 239.384 197.105 238.504C197.105 237.224 197.369 236.176 197.897 235.36C198.425 234.528 199.081 233.888 199.865 233.44C200.665 232.992 201.529 232.72 202.457 232.624C203.385 232.512 204.241 232.536 205.025 232.696C205.825 232.84 206.489 233.104 207.017 233.488C207.545 233.856 207.809 234.296 207.809 234.808C207.809 235.32 207.689 235.792 207.449 236.224C207.209 236.64 206.849 236.896 206.369 236.992C206.273 237.008 206.129 237.024 205.937 237.04C205.761 237.056 205.569 237.072 205.361 237.088C205.169 237.088 204.977 237.088 204.785 237.088C204.609 237.088 204.473 237.072 204.377 237.04C204.265 237.008 204.201 236.936 204.185 236.824C204.185 236.696 204.209 236.56 204.257 236.416C204.321 236.256 204.393 236.104 204.473 235.96C204.553 235.816 204.625 235.696 204.689 235.6C205.121 234.944 205.313 234.392 205.265 233.944C205.217 233.496 205.041 233.176 204.737 232.984C204.433 232.792 204.049 232.736 203.585 232.816C203.121 232.88 202.681 233.096 202.265 233.464C201.849 233.832 201.513 234.352 201.257 235.024C201.017 235.68 200.953 236.504 201.065 237.496ZM218.401 232.792C217.905 233.24 217.497 233.68 217.177 234.112C216.873 234.544 216.529 235 216.145 235.48C216.369 236.152 216.641 236.848 216.961 237.568C217.281 238.272 217.601 238.928 217.921 239.536C218.065 239.824 218.249 240.176 218.473 240.592C218.713 241.008 218.961 241.432 219.217 241.864C219.489 242.296 219.761 242.704 220.033 243.088C220.321 243.472 220.577 243.776 220.801 244H216.169C216.169 243.648 216.065 243.168 215.857 242.56C215.649 241.952 215.401 241.328 215.113 240.688C214.825 240.032 214.529 239.424 214.225 238.864C213.921 238.304 213.673 237.896 213.481 237.64L212.809 236.728V238.672C212.809 238.992 212.817 239.4 212.833 239.896C212.865 240.376 212.905 240.872 212.953 241.384C213.001 241.88 213.065 242.368 213.145 242.848C213.225 243.312 213.329 243.696 213.457 244H208.777C208.921 243.648 209.041 243.088 209.137 242.32C209.249 241.536 209.329 240.656 209.377 239.68C209.441 238.704 209.481 237.688 209.497 236.632C209.513 235.56 209.497 234.552 209.449 233.608C209.417 232.664 209.353 231.832 209.257 231.112C209.177 230.392 209.073 229.896 208.945 229.624C209.745 229.592 210.497 229.416 211.201 229.096C211.921 228.76 212.633 228.424 213.337 228.088C213.177 228.648 213.057 229.296 212.977 230.032C212.897 230.768 212.841 231.528 212.809 232.312C212.793 233.08 212.785 233.84 212.785 234.592C212.801 235.328 212.809 235.968 212.809 236.512C213.193 236.4 213.577 236.232 213.961 236.008C214.345 235.768 214.689 235.496 214.993 235.192C215.313 234.872 215.577 234.52 215.785 234.136C216.009 233.752 216.137 233.344 216.169 232.912C216.313 232.944 216.497 232.96 216.721 232.96C216.945 232.944 217.169 232.928 217.393 232.912C217.617 232.896 217.817 232.88 217.993 232.864C218.185 232.832 218.321 232.808 218.401 232.792ZM233.712 238.48C233.712 239.456 233.528 240.312 233.16 241.048C232.792 241.784 232.304 242.4 231.696 242.896C231.088 243.376 230.392 243.736 229.608 243.976C228.84 244.216 228.056 244.336 227.256 244.336C226.456 244.336 225.664 244.216 224.88 243.976C224.112 243.72 223.424 243.352 222.816 242.872C222.208 242.376 221.72 241.768 221.352 241.048C220.984 240.312 220.8 239.456 220.8 238.48C220.8 237.616 220.968 236.824 221.304 236.104C221.656 235.368 222.128 234.736 222.72 234.208C223.312 233.68 224 233.272 224.784 232.984C225.568 232.696 226.4 232.552 227.28 232.552C228.144 232.552 228.96 232.696 229.728 232.984C230.512 233.272 231.2 233.68 231.792 234.208C232.384 234.736 232.848 235.368 233.184 236.104C233.536 236.824 233.712 237.616 233.712 238.48ZM229.68 237.952C229.584 237.584 229.44 237.136 229.248 236.608C229.056 236.064 228.816 235.536 228.528 235.024C228.24 234.512 227.896 234.064 227.496 233.68C227.112 233.296 226.68 233.08 226.2 233.032C225.688 232.984 225.288 233.16 225 233.56C224.728 233.944 224.552 234.44 224.472 235.048C224.392 235.656 224.384 236.32 224.448 237.04C224.528 237.744 224.664 238.384 224.856 238.96C225.096 239.712 225.392 240.44 225.744 241.144C226.112 241.832 226.496 242.4 226.896 242.848C227.296 243.296 227.696 243.576 228.096 243.688C228.512 243.784 228.88 243.624 229.2 243.208C229.472 242.856 229.664 242.464 229.776 242.032C229.904 241.584 229.976 241.128 229.992 240.664C230.008 240.2 229.984 239.736 229.92 239.272C229.856 238.808 229.776 238.368 229.68 237.952ZM242.091 244C242.267 243.6 242.403 243.144 242.499 242.632C242.595 242.12 242.667 241.592 242.715 241.048C242.571 241.352 242.403 241.664 242.211 241.984C242.019 242.304 241.803 242.6 241.563 242.872C241.339 243.144 241.091 243.392 240.819 243.616C240.563 243.824 240.291 243.984 240.003 244.096C239.827 244.16 239.603 244.2 239.331 244.216C239.075 244.248 238.835 244.264 238.611 244.264C238.035 244.264 237.523 244.16 237.075 243.952C236.643 243.744 236.275 243.464 235.971 243.112C235.667 242.744 235.435 242.312 235.275 241.816C235.131 241.32 235.059 240.784 235.059 240.208C235.059 239.744 235.067 239.28 235.083 238.816C235.115 238.336 235.131 237.864 235.131 237.4C235.131 237.192 235.123 236.928 235.107 236.608C235.107 236.272 235.091 235.928 235.059 235.576C235.027 235.224 234.979 234.896 234.915 234.592C234.867 234.272 234.787 234.016 234.675 233.824C235.411 233.792 236.163 233.696 236.931 233.536C237.699 233.376 238.411 233.128 239.067 232.792C238.955 233.016 238.867 233.392 238.803 233.92C238.739 234.432 238.683 234.984 238.635 235.576C238.603 236.152 238.579 236.72 238.563 237.28C238.563 237.824 238.563 238.224 238.563 238.48C238.563 238.752 238.563 239.152 238.563 239.68C238.579 240.208 238.619 240.744 238.683 241.288C238.763 241.816 238.875 242.304 239.019 242.752C239.179 243.184 239.403 243.448 239.691 243.544C239.867 243.608 240.091 243.568 240.363 243.424C240.635 243.264 240.915 243.032 241.203 242.728C241.491 242.424 241.771 242.072 242.043 241.672C242.315 241.272 242.547 240.848 242.739 240.4C242.771 239.856 242.779 239.344 242.763 238.864C242.763 238.384 242.763 237.92 242.763 237.472C242.763 237.248 242.755 236.968 242.739 236.632C242.739 236.296 242.723 235.96 242.691 235.624C242.659 235.272 242.603 234.936 242.523 234.616C242.459 234.296 242.371 234.04 242.259 233.848C243.059 233.816 243.827 233.728 244.563 233.584C245.299 233.424 246.011 233.16 246.699 232.792C246.603 233.08 246.523 233.456 246.459 233.92C246.395 234.384 246.339 234.872 246.291 235.384C246.259 235.88 246.235 236.368 246.219 236.848C246.219 237.328 246.219 237.72 246.219 238.024C246.219 238.392 246.219 238.848 246.219 239.392C246.235 239.936 246.267 240.496 246.315 241.072C246.363 241.632 246.427 242.176 246.507 242.704C246.603 243.232 246.723 243.664 246.867 244H242.091ZM251.976 233.248C251.944 234.16 251.928 235.072 251.928 235.984C251.944 236.896 251.952 237.656 251.952 238.264C251.952 238.584 251.952 239.04 251.952 239.632C251.968 240.208 252.016 240.792 252.096 241.384C252.192 241.976 252.344 242.504 252.552 242.968C252.776 243.432 253.104 243.704 253.536 243.784C253.312 243.944 253.048 244.064 252.744 244.144C252.44 244.224 252.136 244.264 251.832 244.264C251.256 244.264 250.752 244.152 250.32 243.928C249.904 243.704 249.552 243.408 249.264 243.04C248.992 242.656 248.784 242.208 248.64 241.696C248.512 241.184 248.448 240.64 248.448 240.064C248.448 239.136 248.456 238.216 248.472 237.304C248.504 236.392 248.52 235.472 248.52 234.544C248.52 234.416 248.512 234.28 248.496 234.136C248.496 233.976 248.472 233.832 248.424 233.704C248.392 233.576 248.328 233.472 248.232 233.392C248.136 233.296 248 233.248 247.824 233.248V233.008C248.352 232.992 248.808 232.88 249.192 232.672C249.592 232.448 249.968 232.184 250.32 231.88C250.672 231.56 251.016 231.224 251.352 230.872C251.688 230.504 252.048 230.176 252.432 229.888C252.304 230.304 252.208 230.776 252.144 231.304C252.08 231.832 252.032 232.4 252 233.008H253.824V233.248H251.976Z" fill="#27141A"/>
<path d="M51.32 278L55.176 266.48H57.16L61.016 278H59.536L55.928 267.312H56.376L52.8 278H51.32ZM53.176 275.304V273.968H59.16V275.304H53.176ZM65.8401 278.24C65.0348 278.24 64.3441 278.04 63.7681 277.64C63.1921 277.235 62.7468 276.688 62.4321 276C62.1228 275.312 61.9681 274.536 61.9681 273.672C61.9681 272.808 62.1228 272.032 62.4321 271.344C62.7468 270.656 63.1921 270.115 63.7681 269.72C64.3441 269.32 65.0321 269.12 65.8321 269.12C66.6481 269.12 67.3335 269.317 67.8881 269.712C68.4428 270.107 68.8615 270.648 69.1441 271.336C69.4321 272.024 69.5761 272.803 69.5761 273.672C69.5761 274.531 69.4321 275.307 69.1441 276C68.8615 276.688 68.4428 277.235 67.8881 277.64C67.3335 278.04 66.6508 278.24 65.8401 278.24ZM66.0161 276.936C66.5975 276.936 67.0748 276.797 67.4481 276.52C67.8215 276.237 68.0961 275.851 68.2721 275.36C68.4535 274.864 68.5441 274.301 68.5441 273.672C68.5441 273.032 68.4535 272.469 68.2721 271.984C68.0961 271.493 67.8241 271.112 67.4561 270.84C67.0881 270.563 66.6215 270.424 66.0561 270.424C65.4695 270.424 64.9841 270.568 64.6001 270.856C64.2215 271.144 63.9388 271.533 63.7521 272.024C63.5708 272.515 63.4801 273.064 63.4801 273.672C63.4801 274.285 63.5735 274.84 63.7601 275.336C63.9468 275.827 64.2268 276.216 64.6001 276.504C64.9788 276.792 65.4508 276.936 66.0161 276.936ZM68.5441 278V271.64H68.3841V266.48H69.8161V278H68.5441ZM75.4495 278.24C74.6442 278.24 73.9535 278.04 73.3775 277.64C72.8015 277.235 72.3562 276.688 72.0415 276C71.7322 275.312 71.5775 274.536 71.5775 273.672C71.5775 272.808 71.7322 272.032 72.0415 271.344C72.3562 270.656 72.8015 270.115 73.3775 269.72C73.9535 269.32 74.6415 269.12 75.4415 269.12C76.2575 269.12 76.9428 269.317 77.4975 269.712C78.0522 270.107 78.4708 270.648 78.7535 271.336C79.0415 272.024 79.1855 272.803 79.1855 273.672C79.1855 274.531 79.0415 275.307 78.7535 276C78.4708 276.688 78.0522 277.235 77.4975 277.64C76.9428 278.04 76.2602 278.24 75.4495 278.24ZM75.6255 276.936C76.2068 276.936 76.6842 276.797 77.0575 276.52C77.4308 276.237 77.7055 275.851 77.8815 275.36C78.0628 274.864 78.1535 274.301 78.1535 273.672C78.1535 273.032 78.0628 272.469 77.8815 271.984C77.7055 271.493 77.4335 271.112 77.0655 270.84C76.6975 270.563 76.2308 270.424 75.6655 270.424C75.0788 270.424 74.5935 270.568 74.2095 270.856C73.8308 271.144 73.5482 271.533 73.3615 272.024C73.1802 272.515 73.0895 273.064 73.0895 273.672C73.0895 274.285 73.1828 274.84 73.3695 275.336C73.5562 275.827 73.8362 276.216 74.2095 276.504C74.5882 276.792 75.0602 276.936 75.6255 276.936ZM78.1535 278V271.64H77.9935V266.48H79.4255V278H78.1535ZM89.694 278C89.182 278.101 88.6753 278.141 88.174 278.12C87.678 278.104 87.2353 278.005 86.846 277.824C86.4567 277.637 86.1607 277.349 85.958 276.96C85.7873 276.619 85.694 276.275 85.678 275.928C85.6673 275.576 85.662 275.179 85.662 274.736V266.96H87.086V274.672C87.086 275.024 87.0887 275.325 87.094 275.576C87.1047 275.827 87.1607 276.043 87.262 276.224C87.454 276.565 87.758 276.765 88.174 276.824C88.5953 276.883 89.102 276.867 89.694 276.776V278ZM83.91 270.536V269.36H89.694V270.536H83.91ZM94.7688 278.24C93.9101 278.24 93.1688 278.045 92.5448 277.656C91.9261 277.267 91.4488 276.728 91.1128 276.04C90.7768 275.352 90.6088 274.563 90.6088 273.672C90.6088 272.765 90.7794 271.971 91.1208 271.288C91.4621 270.605 91.9448 270.075 92.5688 269.696C93.1928 269.312 93.9261 269.12 94.7688 269.12C95.6328 269.12 96.3768 269.315 97.0008 269.704C97.6248 270.088 98.1021 270.624 98.4328 271.312C98.7688 271.995 98.9368 272.781 98.9368 273.672C98.9368 274.573 98.7688 275.368 98.4328 276.056C98.0968 276.739 97.6168 277.275 96.9928 277.664C96.3688 278.048 95.6274 278.24 94.7688 278.24ZM94.7688 276.888C95.6648 276.888 96.3314 276.589 96.7688 275.992C97.2061 275.395 97.4248 274.621 97.4248 273.672C97.4248 272.696 97.2034 271.92 96.7608 271.344C96.3181 270.763 95.6541 270.472 94.7688 270.472C94.1661 270.472 93.6701 270.608 93.2808 270.88C92.8914 271.152 92.6008 271.528 92.4088 272.008C92.2168 272.488 92.1208 273.043 92.1208 273.672C92.1208 274.643 92.3448 275.421 92.7928 276.008C93.2408 276.595 93.8994 276.888 94.7688 276.888ZM107.541 278.24C106.667 278.24 105.923 278.045 105.309 277.656C104.701 277.261 104.237 276.72 103.917 276.032C103.597 275.344 103.432 274.56 103.421 273.68C103.432 272.779 103.6 271.987 103.925 271.304C104.256 270.616 104.728 270.08 105.341 269.696C105.955 269.312 106.693 269.12 107.557 269.12C108.469 269.12 109.253 269.344 109.909 269.792C110.571 270.24 111.013 270.853 111.237 271.632L109.829 272.056C109.648 271.555 109.352 271.165 108.941 270.888C108.536 270.611 108.069 270.472 107.541 270.472C106.949 270.472 106.461 270.611 106.077 270.888C105.693 271.16 105.408 271.539 105.221 272.024C105.035 272.504 104.939 273.056 104.933 273.68C104.944 274.64 105.165 275.416 105.597 276.008C106.035 276.595 106.683 276.888 107.541 276.888C108.107 276.888 108.576 276.76 108.949 276.504C109.323 276.243 109.605 275.867 109.797 275.376L111.237 275.752C110.939 276.557 110.472 277.173 109.837 277.6C109.203 278.027 108.437 278.24 107.541 278.24ZM115.248 278.24C114.603 278.24 114.061 278.123 113.624 277.888C113.192 277.648 112.864 277.333 112.64 276.944C112.421 276.555 112.312 276.128 112.312 275.664C112.312 275.211 112.397 274.819 112.568 274.488C112.744 274.152 112.989 273.875 113.304 273.656C113.619 273.432 113.995 273.256 114.432 273.128C114.843 273.016 115.301 272.92 115.808 272.84C116.32 272.755 116.837 272.677 117.36 272.608C117.883 272.539 118.371 272.472 118.824 272.408L118.312 272.704C118.328 271.936 118.173 271.368 117.848 271C117.528 270.632 116.973 270.448 116.184 270.448C115.661 270.448 115.203 270.568 114.808 270.808C114.419 271.043 114.144 271.427 113.984 271.96L112.632 271.552C112.84 270.795 113.243 270.2 113.84 269.768C114.437 269.336 115.224 269.12 116.2 269.12C116.984 269.12 117.656 269.261 118.216 269.544C118.781 269.821 119.187 270.243 119.432 270.808C119.555 271.075 119.632 271.365 119.664 271.68C119.696 271.989 119.712 272.315 119.712 272.656V278H118.448V275.928L118.744 276.12C118.419 276.819 117.963 277.347 117.376 277.704C116.795 278.061 116.085 278.24 115.248 278.24ZM115.464 277.048C115.976 277.048 116.419 276.957 116.792 276.776C117.171 276.589 117.475 276.347 117.704 276.048C117.933 275.744 118.083 275.413 118.152 275.056C118.232 274.789 118.275 274.493 118.28 274.168C118.291 273.837 118.296 273.584 118.296 273.408L118.792 273.624C118.328 273.688 117.872 273.749 117.424 273.808C116.976 273.867 116.552 273.931 116.152 274C115.752 274.064 115.392 274.141 115.072 274.232C114.837 274.307 114.616 274.403 114.408 274.52C114.205 274.637 114.04 274.789 113.912 274.976C113.789 275.157 113.728 275.384 113.728 275.656C113.728 275.891 113.787 276.115 113.904 276.328C114.027 276.541 114.213 276.715 114.464 276.848C114.72 276.981 115.053 277.048 115.464 277.048ZM121.792 278V269.36H123.064V271.448L122.856 271.176C122.957 270.909 123.088 270.664 123.248 270.44C123.413 270.216 123.597 270.032 123.8 269.888C124.024 269.707 124.277 269.568 124.56 269.472C124.843 269.376 125.131 269.32 125.424 269.304C125.717 269.283 125.992 269.301 126.248 269.36V270.696C125.949 270.616 125.621 270.595 125.264 270.632C124.907 270.669 124.576 270.8 124.272 271.024C123.995 271.221 123.779 271.461 123.624 271.744C123.475 272.027 123.371 272.333 123.312 272.664C123.253 272.989 123.224 273.323 123.224 273.664V278H121.792ZM132.585 278C132.073 278.101 131.566 278.141 131.065 278.12C130.569 278.104 130.126 278.005 129.737 277.824C129.347 277.637 129.051 277.349 128.849 276.96C128.678 276.619 128.585 276.275 128.569 275.928C128.558 275.576 128.553 275.179 128.553 274.736V266.96H129.977V274.672C129.977 275.024 129.979 275.325 129.985 275.576C129.995 275.827 130.051 276.043 130.153 276.224C130.345 276.565 130.649 276.765 131.065 276.824C131.486 276.883 131.993 276.867 132.585 276.776V278ZM126.801 270.536V269.36H132.585V270.536H126.801ZM134.179 279.792L134.267 279.128C134.491 279.144 134.659 279.101 134.771 279C134.883 278.899 134.955 278.76 134.987 278.584C135.019 278.408 135.024 278.213 135.003 278H134.179V276.192H135.747V278.24C135.747 278.8 135.608 279.221 135.331 279.504C135.059 279.787 134.675 279.883 134.179 279.792ZM145.635 278.24C144.76 278.24 144.016 278.045 143.403 277.656C142.795 277.261 142.331 276.72 142.011 276.032C141.691 275.344 141.526 274.56 141.515 273.68C141.526 272.779 141.694 271.987 142.019 271.304C142.35 270.616 142.822 270.08 143.435 269.696C144.048 269.312 144.787 269.12 145.651 269.12C146.563 269.12 147.347 269.344 148.003 269.792C148.664 270.24 149.107 270.853 149.331 271.632L147.923 272.056C147.742 271.555 147.446 271.165 147.035 270.888C146.63 270.611 146.163 270.472 145.635 270.472C145.043 270.472 144.555 270.611 144.171 270.888C143.787 271.16 143.502 271.539 143.315 272.024C143.128 272.504 143.032 273.056 143.027 273.68C143.038 274.64 143.259 275.416 143.691 276.008C144.128 276.595 144.776 276.888 145.635 276.888C146.2 276.888 146.67 276.76 147.043 276.504C147.416 276.243 147.699 275.867 147.891 275.376L149.331 275.752C149.032 276.557 148.566 277.173 147.931 277.6C147.296 278.027 146.531 278.24 145.635 278.24ZM157.116 278V273.672C157.116 273.261 157.078 272.867 157.004 272.488C156.934 272.109 156.809 271.771 156.628 271.472C156.452 271.168 156.212 270.928 155.908 270.752C155.609 270.576 155.23 270.488 154.772 270.488C154.414 270.488 154.089 270.549 153.796 270.672C153.508 270.789 153.26 270.971 153.052 271.216C152.844 271.461 152.681 271.771 152.564 272.144C152.452 272.512 152.396 272.947 152.396 273.448L151.46 273.16C151.46 272.323 151.609 271.605 151.908 271.008C152.212 270.405 152.636 269.944 153.18 269.624C153.729 269.299 154.374 269.136 155.116 269.136C155.676 269.136 156.153 269.224 156.548 269.4C156.942 269.576 157.27 269.811 157.532 270.104C157.793 270.392 157.998 270.717 158.148 271.08C158.297 271.437 158.401 271.803 158.46 272.176C158.524 272.544 158.556 272.893 158.556 273.224V278H157.116ZM150.956 278V266.48H152.236V272.84H152.396V278H150.956ZM164.38 278.24C163.532 278.24 162.79 278.053 162.156 277.68C161.526 277.301 161.036 276.776 160.684 276.104C160.332 275.427 160.156 274.637 160.156 273.736C160.156 272.792 160.329 271.976 160.676 271.288C161.022 270.595 161.505 270.061 162.124 269.688C162.748 269.309 163.478 269.12 164.316 269.12C165.185 269.12 165.924 269.32 166.532 269.72C167.145 270.12 167.604 270.691 167.908 271.432C168.217 272.173 168.35 273.056 168.308 274.08H166.868V273.568C166.852 272.507 166.636 271.715 166.22 271.192C165.804 270.664 165.185 270.4 164.364 270.4C163.484 270.4 162.814 270.683 162.356 271.248C161.897 271.813 161.668 272.624 161.668 273.68C161.668 274.699 161.897 275.488 162.356 276.048C162.814 276.608 163.468 276.888 164.316 276.888C164.886 276.888 165.382 276.757 165.804 276.496C166.225 276.235 166.556 275.859 166.796 275.368L168.164 275.84C167.828 276.603 167.321 277.195 166.644 277.616C165.972 278.032 165.217 278.24 164.38 278.24ZM161.188 274.08V272.936H167.572V274.08H161.188ZM173.729 278.24C172.854 278.24 172.11 278.045 171.497 277.656C170.889 277.261 170.425 276.72 170.105 276.032C169.785 275.344 169.619 274.56 169.609 273.68C169.619 272.779 169.787 271.987 170.113 271.304C170.443 270.616 170.915 270.08 171.529 269.696C172.142 269.312 172.881 269.12 173.745 269.12C174.657 269.12 175.441 269.344 176.097 269.792C176.758 270.24 177.201 270.853 177.425 271.632L176.017 272.056C175.835 271.555 175.539 271.165 175.129 270.888C174.723 270.611 174.257 270.472 173.729 270.472C173.137 270.472 172.649 270.611 172.265 270.888C171.881 271.16 171.595 271.539 171.409 272.024C171.222 272.504 171.126 273.056 171.121 273.68C171.131 274.64 171.353 275.416 171.785 276.008C172.222 276.595 172.87 276.888 173.729 276.888C174.294 276.888 174.763 276.76 175.137 276.504C175.51 276.243 175.793 275.867 175.985 275.376L177.425 275.752C177.126 276.557 176.659 277.173 176.025 277.6C175.39 278.027 174.625 278.24 173.729 278.24ZM179.05 278L179.058 266.48H180.498V273.52L184.122 269.36H185.97L182.154 273.68L186.418 278H184.426L180.498 273.84V278H179.05ZM194.097 278.24C193.238 278.24 192.497 278.045 191.873 277.656C191.254 277.267 190.777 276.728 190.441 276.04C190.105 275.352 189.937 274.563 189.937 273.672C189.937 272.765 190.108 271.971 190.449 271.288C190.79 270.605 191.273 270.075 191.897 269.696C192.521 269.312 193.254 269.12 194.097 269.12C194.961 269.12 195.705 269.315 196.329 269.704C196.953 270.088 197.43 270.624 197.761 271.312C198.097 271.995 198.265 272.781 198.265 273.672C198.265 274.573 198.097 275.368 197.761 276.056C197.425 276.739 196.945 277.275 196.321 277.664C195.697 278.048 194.956 278.24 194.097 278.24ZM194.097 276.888C194.993 276.888 195.66 276.589 196.097 275.992C196.534 275.395 196.753 274.621 196.753 273.672C196.753 272.696 196.532 271.92 196.089 271.344C195.646 270.763 194.982 270.472 194.097 270.472C193.494 270.472 192.998 270.608 192.609 270.88C192.22 271.152 191.929 271.528 191.737 272.008C191.545 272.488 191.449 273.043 191.449 273.672C191.449 274.643 191.673 275.421 192.121 276.008C192.569 276.595 193.228 276.888 194.097 276.888ZM203.306 278.224C202.752 278.224 202.274 278.136 201.874 277.96C201.48 277.784 201.152 277.549 200.89 277.256C200.629 276.963 200.424 276.637 200.274 276.28C200.125 275.923 200.018 275.557 199.954 275.184C199.896 274.811 199.866 274.461 199.866 274.136V269.36H201.306V273.688C201.306 274.093 201.344 274.485 201.418 274.864C201.493 275.243 201.618 275.584 201.794 275.888C201.976 276.192 202.216 276.432 202.514 276.608C202.818 276.784 203.197 276.872 203.65 276.872C204.008 276.872 204.333 276.811 204.626 276.688C204.92 276.565 205.17 276.384 205.378 276.144C205.586 275.899 205.746 275.589 205.858 275.216C205.97 274.843 206.026 274.408 206.026 273.912L206.962 274.2C206.962 275.032 206.81 275.749 206.506 276.352C206.208 276.955 205.784 277.419 205.234 277.744C204.69 278.064 204.048 278.224 203.306 278.224ZM206.186 278V275.688H206.026V269.36H207.458V278H206.186ZM214.522 278C214.01 278.101 213.503 278.141 213.002 278.12C212.506 278.104 212.063 278.005 211.674 277.824C211.285 277.637 210.989 277.349 210.786 276.96C210.615 276.619 210.522 276.275 210.506 275.928C210.495 275.576 210.49 275.179 210.49 274.736V266.96H211.914V274.672C211.914 275.024 211.917 275.325 211.922 275.576C211.933 275.827 211.989 276.043 212.09 276.224C212.282 276.565 212.586 276.765 213.002 276.824C213.423 276.883 213.93 276.867 214.522 276.776V278ZM208.738 270.536V269.36H214.522V270.536H208.738ZM221.935 278.24C221.29 278.24 220.749 278.123 220.311 277.888C219.879 277.648 219.551 277.333 219.327 276.944C219.109 276.555 218.999 276.128 218.999 275.664C218.999 275.211 219.085 274.819 219.255 274.488C219.431 274.152 219.677 273.875 219.991 273.656C220.306 273.432 220.682 273.256 221.119 273.128C221.53 273.016 221.989 272.92 222.495 272.84C223.007 272.755 223.525 272.677 224.047 272.608C224.57 272.539 225.058 272.472 225.511 272.408L224.999 272.704C225.015 271.936 224.861 271.368 224.535 271C224.215 270.632 223.661 270.448 222.871 270.448C222.349 270.448 221.89 270.568 221.495 270.808C221.106 271.043 220.831 271.427 220.671 271.96L219.319 271.552C219.527 270.795 219.93 270.2 220.527 269.768C221.125 269.336 221.911 269.12 222.887 269.12C223.671 269.12 224.343 269.261 224.903 269.544C225.469 269.821 225.874 270.243 226.119 270.808C226.242 271.075 226.319 271.365 226.351 271.68C226.383 271.989 226.399 272.315 226.399 272.656V278H225.135V275.928L225.431 276.12C225.106 276.819 224.65 277.347 224.063 277.704C223.482 278.061 222.773 278.24 221.935 278.24ZM222.151 277.048C222.663 277.048 223.106 276.957 223.479 276.776C223.858 276.589 224.162 276.347 224.391 276.048C224.621 275.744 224.77 275.413 224.839 275.056C224.919 274.789 224.962 274.493 224.967 274.168C224.978 273.837 224.983 273.584 224.983 273.408L225.479 273.624C225.015 273.688 224.559 273.749 224.111 273.808C223.663 273.867 223.239 273.931 222.839 274C222.439 274.064 222.079 274.141 221.759 274.232C221.525 274.307 221.303 274.403 221.095 274.52C220.893 274.637 220.727 274.789 220.599 274.976C220.477 275.157 220.415 275.384 220.415 275.656C220.415 275.891 220.474 276.115 220.591 276.328C220.714 276.541 220.901 276.715 221.151 276.848C221.407 276.981 221.741 277.048 222.151 277.048ZM234.631 278V273.672C234.631 273.261 234.594 272.867 234.519 272.488C234.45 272.109 234.325 271.771 234.143 271.472C233.967 271.168 233.727 270.928 233.423 270.752C233.125 270.576 232.746 270.488 232.287 270.488C231.93 270.488 231.605 270.549 231.311 270.672C231.023 270.789 230.775 270.971 230.567 271.216C230.359 271.461 230.197 271.771 230.079 272.144C229.967 272.512 229.911 272.947 229.911 273.448L228.975 273.16C228.975 272.323 229.125 271.605 229.423 271.008C229.727 270.405 230.151 269.944 230.695 269.624C231.245 269.299 231.89 269.136 232.631 269.136C233.191 269.136 233.669 269.224 234.063 269.4C234.458 269.576 234.786 269.811 235.047 270.104C235.309 270.392 235.514 270.717 235.663 271.08C235.813 271.437 235.917 271.803 235.975 272.176C236.039 272.544 236.071 272.893 236.071 273.224V278H234.631ZM228.471 278V269.36H229.751V271.672H229.911V278H228.471ZM241.465 278.24C240.66 278.24 239.969 278.04 239.393 277.64C238.817 277.235 238.372 276.688 238.057 276C237.748 275.312 237.593 274.536 237.593 273.672C237.593 272.808 237.748 272.032 238.057 271.344C238.372 270.656 238.817 270.115 239.393 269.72C239.969 269.32 240.657 269.12 241.457 269.12C242.273 269.12 242.958 269.317 243.513 269.712C244.068 270.107 244.486 270.648 244.769 271.336C245.057 272.024 245.201 272.803 245.201 273.672C245.201 274.531 245.057 275.307 244.769 276C244.486 276.688 244.068 277.235 243.513 277.64C242.958 278.04 242.276 278.24 241.465 278.24ZM241.641 276.936C242.222 276.936 242.7 276.797 243.073 276.52C243.446 276.237 243.721 275.851 243.897 275.36C244.078 274.864 244.169 274.301 244.169 273.672C244.169 273.032 244.078 272.469 243.897 271.984C243.721 271.493 243.449 271.112 243.081 270.84C242.713 270.563 242.246 270.424 241.681 270.424C241.094 270.424 240.609 270.568 240.225 270.856C239.846 271.144 239.564 271.533 239.377 272.024C239.196 272.515 239.105 273.064 239.105 273.672C239.105 274.285 239.198 274.84 239.385 275.336C239.572 275.827 239.852 276.216 240.225 276.504C240.604 276.792 241.076 276.936 241.641 276.936ZM244.169 278V271.64H244.009V266.48H245.441V278H244.169ZM261.214 278L261.222 272.472C261.222 271.827 261.048 271.323 260.702 270.96C260.36 270.592 259.915 270.408 259.366 270.408C259.046 270.408 258.742 270.483 258.454 270.632C258.166 270.776 257.931 271.005 257.75 271.32C257.568 271.629 257.478 272.027 257.478 272.512L256.726 272.208C256.715 271.595 256.84 271.059 257.102 270.6C257.368 270.136 257.731 269.776 258.19 269.52C258.648 269.264 259.166 269.136 259.742 269.136C260.643 269.136 261.352 269.411 261.87 269.96C262.387 270.504 262.646 271.237 262.646 272.16L262.638 278H261.214ZM250.878 278V269.36H252.15V271.672H252.31V278H250.878ZM256.054 278L256.062 272.528C256.062 271.867 255.891 271.349 255.55 270.976C255.208 270.597 254.755 270.408 254.19 270.408C253.63 270.408 253.176 270.6 252.83 270.984C252.483 271.368 252.31 271.877 252.31 272.512L251.558 272.064C251.558 271.504 251.691 271.003 251.958 270.56C252.224 270.117 252.587 269.771 253.046 269.52C253.504 269.264 254.024 269.136 254.606 269.136C255.187 269.136 255.694 269.259 256.126 269.504C256.558 269.749 256.891 270.101 257.126 270.56C257.36 271.013 257.478 271.555 257.478 272.184L257.47 278H256.054ZM267.185 278.24C266.54 278.24 265.999 278.123 265.561 277.888C265.129 277.648 264.801 277.333 264.577 276.944C264.359 276.555 264.249 276.128 264.249 275.664C264.249 275.211 264.335 274.819 264.505 274.488C264.681 274.152 264.927 273.875 265.241 273.656C265.556 273.432 265.932 273.256 266.369 273.128C266.78 273.016 267.239 272.92 267.745 272.84C268.257 272.755 268.775 272.677 269.297 272.608C269.82 272.539 270.308 272.472 270.761 272.408L270.249 272.704C270.265 271.936 270.111 271.368 269.785 271C269.465 270.632 268.911 270.448 268.121 270.448C267.599 270.448 267.14 270.568 266.745 270.808C266.356 271.043 266.081 271.427 265.921 271.96L264.569 271.552C264.777 270.795 265.18 270.2 265.777 269.768C266.375 269.336 267.161 269.12 268.137 269.12C268.921 269.12 269.593 269.261 270.153 269.544C270.719 269.821 271.124 270.243 271.369 270.808C271.492 271.075 271.569 271.365 271.601 271.68C271.633 271.989 271.649 272.315 271.649 272.656V278H270.385V275.928L270.681 276.12C270.356 276.819 269.9 277.347 269.313 277.704C268.732 278.061 268.023 278.24 267.185 278.24ZM267.401 277.048C267.913 277.048 268.356 276.957 268.729 276.776C269.108 276.589 269.412 276.347 269.641 276.048C269.871 275.744 270.02 275.413 270.089 275.056C270.169 274.789 270.212 274.493 270.217 274.168C270.228 273.837 270.233 273.584 270.233 273.408L270.729 273.624C270.265 273.688 269.809 273.749 269.361 273.808C268.913 273.867 268.489 273.931 268.089 274C267.689 274.064 267.329 274.141 267.009 274.232C266.775 274.307 266.553 274.403 266.345 274.52C266.143 274.637 265.977 274.789 265.849 274.976C265.727 275.157 265.665 275.384 265.665 275.656C265.665 275.891 265.724 276.115 265.841 276.328C265.964 276.541 266.151 276.715 266.401 276.848C266.657 276.981 266.991 277.048 267.401 277.048ZM273.721 278L273.729 266.48H275.169V273.52L278.793 269.36H280.641L276.825 273.68L281.089 278H279.097L275.169 273.84V278H273.721ZM285.473 278.24C284.625 278.24 283.884 278.053 283.249 277.68C282.62 277.301 282.129 276.776 281.777 276.104C281.425 275.427 281.249 274.637 281.249 273.736C281.249 272.792 281.423 271.976 281.769 271.288C282.116 270.595 282.599 270.061 283.217 269.688C283.841 269.309 284.572 269.12 285.409 269.12C286.279 269.12 287.017 269.32 287.625 269.72C288.239 270.12 288.697 270.691 289.001 271.432C289.311 272.173 289.444 273.056 289.401 274.08H287.961V273.568C287.945 272.507 287.729 271.715 287.313 271.192C286.897 270.664 286.279 270.4 285.457 270.4C284.577 270.4 283.908 270.683 283.449 271.248C282.991 271.813 282.761 272.624 282.761 273.68C282.761 274.699 282.991 275.488 283.449 276.048C283.908 276.608 284.561 276.888 285.409 276.888C285.98 276.888 286.476 276.757 286.897 276.496C287.319 276.235 287.649 275.859 287.889 275.368L289.257 275.84C288.921 276.603 288.415 277.195 287.737 277.616C287.065 278.032 286.311 278.24 285.473 278.24ZM282.281 274.08V272.936H288.665V274.08H282.281ZM298.354 278.24C297.543 278.24 296.86 278.04 296.306 277.64C295.751 277.235 295.33 276.688 295.042 276C294.759 275.307 294.618 274.531 294.618 273.672C294.618 272.803 294.759 272.024 295.042 271.336C295.33 270.648 295.751 270.107 296.306 269.712C296.866 269.317 297.551 269.12 298.362 269.12C299.162 269.12 299.85 269.32 300.426 269.72C301.007 270.115 301.452 270.656 301.762 271.344C302.071 272.032 302.226 272.808 302.226 273.672C302.226 274.536 302.071 275.312 301.762 276C301.452 276.688 301.007 277.235 300.426 277.64C299.85 278.04 299.159 278.24 298.354 278.24ZM294.378 281.84V269.36H295.65V275.72H295.81V281.84H294.378ZM298.178 276.936C298.748 276.936 299.22 276.792 299.594 276.504C299.967 276.216 300.247 275.827 300.434 275.336C300.62 274.84 300.714 274.285 300.714 273.672C300.714 273.064 300.62 272.515 300.434 272.024C300.252 271.533 299.97 271.144 299.586 270.856C299.207 270.568 298.724 270.424 298.138 270.424C297.578 270.424 297.114 270.563 296.746 270.84C296.378 271.112 296.103 271.493 295.922 271.984C295.74 272.469 295.65 273.032 295.65 273.672C295.65 274.301 295.738 274.864 295.914 275.36C296.095 275.851 296.372 276.237 296.746 276.52C297.119 276.797 297.596 276.936 298.178 276.936ZM306.435 278.24C305.79 278.24 305.249 278.123 304.811 277.888C304.379 277.648 304.051 277.333 303.827 276.944C303.609 276.555 303.499 276.128 303.499 275.664C303.499 275.211 303.585 274.819 303.755 274.488C303.931 274.152 304.177 273.875 304.491 273.656C304.806 273.432 305.182 273.256 305.619 273.128C306.03 273.016 306.489 272.92 306.995 272.84C307.507 272.755 308.025 272.677 308.547 272.608C309.07 272.539 309.558 272.472 310.011 272.408L309.499 272.704C309.515 271.936 309.361 271.368 309.035 271C308.715 270.632 308.161 270.448 307.371 270.448C306.849 270.448 306.39 270.568 305.995 270.808C305.606 271.043 305.331 271.427 305.171 271.96L303.819 271.552C304.027 270.795 304.43 270.2 305.027 269.768C305.625 269.336 306.411 269.12 307.387 269.12C308.171 269.12 308.843 269.261 309.403 269.544C309.969 269.821 310.374 270.243 310.619 270.808C310.742 271.075 310.819 271.365 310.851 271.68C310.883 271.989 310.899 272.315 310.899 272.656V278H309.635V275.928L309.931 276.12C309.606 276.819 309.15 277.347 308.563 277.704C307.982 278.061 307.273 278.24 306.435 278.24ZM306.651 277.048C307.163 277.048 307.606 276.957 307.979 276.776C308.358 276.589 308.662 276.347 308.891 276.048C309.121 275.744 309.27 275.413 309.339 275.056C309.419 274.789 309.462 274.493 309.467 274.168C309.478 273.837 309.483 273.584 309.483 273.408L309.979 273.624C309.515 273.688 309.059 273.749 308.611 273.808C308.163 273.867 307.739 273.931 307.339 274C306.939 274.064 306.579 274.141 306.259 274.232C306.025 274.307 305.803 274.403 305.595 274.52C305.393 274.637 305.227 274.789 305.099 274.976C304.977 275.157 304.915 275.384 304.915 275.656C304.915 275.891 304.974 276.115 305.091 276.328C305.214 276.541 305.401 276.715 305.651 276.848C305.907 276.981 306.241 277.048 306.651 277.048ZM313.695 281.84L315.367 277.296L315.391 278.64L311.615 269.36H313.111L316.071 276.824H315.559L318.335 269.36H319.783L315.079 281.84H313.695ZM331.432 278L331.44 272.472C331.44 271.827 331.267 271.323 330.92 270.96C330.579 270.592 330.134 270.408 329.584 270.408C329.264 270.408 328.96 270.483 328.672 270.632C328.384 270.776 328.15 271.005 327.968 271.32C327.787 271.629 327.696 272.027 327.696 272.512L326.944 272.208C326.934 271.595 327.059 271.059 327.32 270.6C327.587 270.136 327.95 269.776 328.408 269.52C328.867 269.264 329.384 269.136 329.96 269.136C330.862 269.136 331.571 269.411 332.088 269.96C332.606 270.504 332.864 271.237 332.864 272.16L332.856 278H331.432ZM321.096 278V269.36H322.368V271.672H322.528V278H321.096ZM326.272 278L326.28 272.528C326.28 271.867 326.11 271.349 325.768 270.976C325.427 270.597 324.974 270.408 324.408 270.408C323.848 270.408 323.395 270.6 323.048 270.984C322.702 271.368 322.528 271.877 322.528 272.512L321.776 272.064C321.776 271.504 321.91 271.003 322.176 270.56C322.443 270.117 322.806 269.771 323.264 269.52C323.723 269.264 324.243 269.136 324.824 269.136C325.406 269.136 325.912 269.259 326.344 269.504C326.776 269.749 327.11 270.101 327.344 270.56C327.579 271.013 327.696 271.555 327.696 272.184L327.688 278H326.272ZM338.614 278.24C337.766 278.24 337.025 278.053 336.39 277.68C335.761 277.301 335.27 276.776 334.918 276.104C334.566 275.427 334.39 274.637 334.39 273.736C334.39 272.792 334.563 271.976 334.91 271.288C335.257 270.595 335.739 270.061 336.358 269.688C336.982 269.309 337.713 269.12 338.55 269.12C339.419 269.12 340.158 269.32 340.766 269.72C341.379 270.12 341.838 270.691 342.142 271.432C342.451 272.173 342.585 273.056 342.542 274.08H341.102V273.568C341.086 272.507 340.87 271.715 340.454 271.192C340.038 270.664 339.419 270.4 338.598 270.4C337.718 270.4 337.049 270.683 336.59 271.248C336.131 271.813 335.902 272.624 335.902 273.68C335.902 274.699 336.131 275.488 336.59 276.048C337.049 276.608 337.702 276.888 338.55 276.888C339.121 276.888 339.617 276.757 340.038 276.496C340.459 276.235 340.79 275.859 341.03 275.368L342.398 275.84C342.062 276.603 341.555 277.195 340.878 277.616C340.206 278.032 339.451 278.24 338.614 278.24ZM335.422 274.08V272.936H341.806V274.08H335.422ZM350.241 278V273.672C350.241 273.261 350.203 272.867 350.129 272.488C350.059 272.109 349.934 271.771 349.753 271.472C349.577 271.168 349.337 270.928 349.033 270.752C348.734 270.576 348.355 270.488 347.897 270.488C347.539 270.488 347.214 270.549 346.921 270.672C346.633 270.789 346.385 270.971 346.177 271.216C345.969 271.461 345.806 271.771 345.689 272.144C345.577 272.512 345.521 272.947 345.521 273.448L344.585 273.16C344.585 272.323 344.734 271.605 345.033 271.008C345.337 270.405 345.761 269.944 346.305 269.624C346.854 269.299 347.499 269.136 348.241 269.136C348.801 269.136 349.278 269.224 349.673 269.4C350.067 269.576 350.395 269.811 350.657 270.104C350.918 270.392 351.123 270.717 351.273 271.08C351.422 271.437 351.526 271.803 351.585 272.176C351.649 272.544 351.681 272.893 351.681 273.224V278H350.241ZM344.081 278V269.36H345.361V271.672H345.521V278H344.081ZM358.585 278C358.073 278.101 357.566 278.141 357.065 278.12C356.569 278.104 356.126 278.005 355.737 277.824C355.347 277.637 355.051 277.349 354.849 276.96C354.678 276.619 354.585 276.275 354.569 275.928C354.558 275.576 354.553 275.179 354.553 274.736V266.96H355.977V274.672C355.977 275.024 355.979 275.325 355.985 275.576C355.995 275.827 356.051 276.043 356.153 276.224C356.345 276.565 356.649 276.765 357.065 276.824C357.486 276.883 357.993 276.867 358.585 276.776V278ZM352.801 270.536V269.36H358.585V270.536H352.801Z" fill="#666666"/>
<rect x="147" y="65" width="126" height="126" rx="63" fill="#0AA06E" fill-opacity="0.1"/>
<path fill-rule="evenodd" clip-rule="evenodd" d="M230.578 141.154L238.027 110.948H186.112L183.964 102.234C183.782 101.496 183.121 101.004 182.394 101.004V101H174.62C173.724 101 173 101.724 173 102.62C173 103.516 173.724 104.24 174.62 104.24H181.129L182.783 110.948L190.232 141.154L230.578 141.154ZM204.392 147.716H216.416C217.105 145.507 219.166 143.902 221.604 143.902C224.603 143.902 227.036 146.335 227.036 149.334C227.036 152.333 224.603 154.767 221.604 154.767C219.166 154.767 217.105 153.164 216.416 150.953H204.392C203.704 153.162 201.642 154.767 199.205 154.767C196.204 154.767 193.773 152.333 193.773 149.334C193.773 146.334 196.206 143.902 199.205 143.902C201.642 143.902 203.704 145.505 204.392 147.716ZM200.871 124.841C200.299 124.159 200.386 123.143 201.068 122.571C201.75 121.999 202.766 122.085 203.338 122.768L208.504 128.897L218.441 117.669C219.032 117.002 220.05 116.938 220.718 117.53C221.385 118.121 221.446 119.141 220.857 119.806L209.682 132.432C209.629 132.489 209.572 132.546 209.511 132.596C208.831 133.169 207.813 133.082 207.241 132.4L200.871 124.841L200.871 124.841Z" fill="#0AA06E"/>
</svg>
