<svg width="419" height="365" viewBox="0 0 419 365" fill="none" xmlns="http://www.w3.org/2000/svg">
<rect width="419" height="365" fill="white"/>
<path d="M117.352 233.688C117.976 233.592 118.648 233.448 119.368 233.256C120.088 233.048 120.776 232.8 121.432 232.512C122.088 232.208 122.672 231.856 123.184 231.456C123.696 231.056 124.064 230.608 124.288 230.112C124.288 230.528 124.296 230.968 124.312 231.432C124.328 231.88 124.344 232.296 124.36 232.68C124.376 233.128 124.392 233.568 124.408 234H112.552C112.712 233.472 112.832 232.864 112.912 232.176C113.008 231.472 113.072 230.752 113.104 230.016C113.152 229.28 113.176 228.56 113.176 227.856C113.192 227.136 113.2 226.496 113.2 225.936C113.2 225.248 113.192 224.528 113.176 223.776C113.176 223.008 113.152 222.248 113.104 221.496C113.056 220.728 112.976 220 112.864 219.312C112.768 218.608 112.632 217.976 112.456 217.416C112.616 217.448 112.856 217.48 113.176 217.512C113.512 217.528 113.904 217.544 114.352 217.56C114.8 217.576 115.288 217.592 115.816 217.608C116.344 217.608 116.896 217.616 117.472 217.632C118.24 217.648 119.024 217.664 119.824 217.68C120.64 217.68 121.392 217.68 122.08 217.68H124.408L124.216 221.664C124.04 221.12 123.696 220.632 123.184 220.2C122.688 219.768 122.112 219.4 121.456 219.096C120.816 218.776 120.136 218.52 119.416 218.328C118.696 218.136 118.024 218.008 117.4 217.944C117.256 218.424 117.136 219.024 117.04 219.744C116.944 220.464 116.872 221.208 116.824 221.976C116.776 222.744 116.736 223.48 116.704 224.184C116.688 224.888 116.68 225.472 116.68 225.936C116.936 225.92 117.224 225.904 117.544 225.888C117.864 225.872 118.184 225.848 118.504 225.816C118.824 225.768 119.128 225.72 119.416 225.672C119.72 225.624 119.968 225.552 120.16 225.456C120.448 225.328 120.72 225.176 120.976 225C121.232 224.824 121.464 224.616 121.672 224.376C121.64 224.84 121.616 225.368 121.6 225.96C121.584 226.552 121.576 227.104 121.576 227.616C121.192 227.184 120.72 226.864 120.16 226.656C119.936 226.576 119.68 226.512 119.392 226.464C119.104 226.4 118.8 226.352 118.48 226.32C118.16 226.288 117.84 226.264 117.52 226.248C117.216 226.216 116.936 226.184 116.68 226.152C116.68 226.6 116.688 227.16 116.704 227.832C116.736 228.488 116.776 229.176 116.824 229.896C116.872 230.616 116.936 231.312 117.016 231.984C117.096 232.656 117.208 233.224 117.352 233.688ZM134.131 223.44C134.403 223.488 134.715 223.44 135.067 223.296C135.419 223.136 135.763 222.968 136.099 222.792C135.747 223.176 135.411 223.616 135.091 224.112C134.771 224.592 134.467 225.096 134.179 225.624C133.891 226.136 133.611 226.656 133.339 227.184C133.083 227.696 132.827 228.176 132.571 228.624C132.779 229.04 133.035 229.488 133.339 229.968C133.643 230.448 133.963 230.928 134.299 231.408C134.635 231.888 134.979 232.36 135.331 232.824C135.699 233.272 136.043 233.664 136.363 234H131.131C131.115 233.776 131.051 233.496 130.939 233.16C130.827 232.824 130.691 232.488 130.531 232.152C130.387 231.8 130.235 231.464 130.075 231.144C129.915 230.808 129.779 230.544 129.667 230.352C129.555 230.56 129.411 230.832 129.235 231.168C129.059 231.504 128.899 231.856 128.755 232.224C128.611 232.592 128.507 232.952 128.443 233.304C128.379 233.656 128.403 233.944 128.515 234.168C128.291 234.136 128.011 234.104 127.675 234.072C127.339 234.056 126.987 234.04 126.619 234.024C126.955 233.816 127.259 233.56 127.531 233.256C127.819 232.952 128.075 232.624 128.299 232.272C128.539 231.92 128.755 231.56 128.947 231.192C129.155 230.808 129.355 230.44 129.547 230.088C129.307 229.64 129.019 229.128 128.683 228.552C128.363 227.976 128.019 227.4 127.651 226.824C127.283 226.248 126.899 225.704 126.499 225.192C126.115 224.664 125.739 224.216 125.371 223.848C125.851 223.864 126.291 223.856 126.691 223.824C127.091 223.792 127.467 223.736 127.819 223.656C128.187 223.56 128.531 223.448 128.851 223.32C129.187 223.176 129.531 223 129.883 222.792C129.931 223.208 130.051 223.656 130.243 224.136C130.451 224.6 130.683 225.08 130.939 225.576C131.195 226.056 131.459 226.528 131.731 226.992C132.003 227.456 132.235 227.88 132.427 228.264C132.555 228.024 132.739 227.688 132.979 227.256C133.235 226.824 133.467 226.368 133.675 225.888C133.899 225.408 134.067 224.944 134.179 224.496C134.291 224.048 134.275 223.696 134.131 223.44ZM145.556 222.552C146.388 222.552 147.124 222.704 147.764 223.008C148.42 223.312 148.964 223.728 149.396 224.256C149.828 224.784 150.156 225.408 150.38 226.128C150.604 226.848 150.716 227.624 150.716 228.456C150.716 229.208 150.604 229.928 150.38 230.616C150.156 231.288 149.828 231.888 149.396 232.416C148.964 232.944 148.436 233.376 147.812 233.712C147.188 234.032 146.476 234.216 145.676 234.264C144.732 234.264 143.9 234.096 143.18 233.76C142.476 233.424 141.892 232.936 141.428 232.296V232.344C141.428 232.504 141.436 232.76 141.452 233.112C141.468 233.464 141.492 233.864 141.524 234.312C141.556 234.76 141.596 235.224 141.644 235.704C141.692 236.184 141.748 236.64 141.812 237.072C141.876 237.504 141.948 237.872 142.028 238.176C142.108 238.496 142.196 238.704 142.292 238.8C142.068 238.752 141.74 238.712 141.308 238.68C140.892 238.648 140.436 238.624 139.94 238.608C139.46 238.608 138.98 238.6 138.5 238.584C138.036 238.584 137.644 238.584 137.324 238.584C137.468 238.152 137.58 237.624 137.66 237C137.74 236.392 137.796 235.752 137.828 235.08C137.876 234.408 137.9 233.76 137.9 233.136C137.916 232.496 137.924 231.944 137.924 231.48C137.924 231.064 137.916 230.504 137.9 229.8C137.884 229.096 137.852 228.368 137.804 227.616C137.772 226.864 137.716 226.144 137.636 225.456C137.572 224.768 137.476 224.232 137.348 223.848C138.228 223.848 139.044 223.76 139.796 223.584C140.548 223.408 141.308 223.144 142.076 222.792C142.028 222.968 141.98 223.168 141.932 223.392C141.9 223.616 141.86 223.848 141.812 224.088C141.78 224.328 141.748 224.56 141.716 224.784C141.684 225.008 141.652 225.208 141.62 225.384C141.732 225.144 141.9 224.864 142.124 224.544C142.364 224.224 142.644 223.92 142.964 223.632C143.3 223.328 143.684 223.072 144.116 222.864C144.548 222.656 145.028 222.552 145.556 222.552ZM145.004 232.152C145.612 231.688 146.044 231.176 146.3 230.616C146.556 230.056 146.684 229.44 146.684 228.768C146.684 228.368 146.628 227.888 146.516 227.328C146.404 226.768 146.22 226.24 145.964 225.744C145.724 225.232 145.404 224.8 145.004 224.448C144.62 224.08 144.148 223.904 143.588 223.92C143.252 223.92 142.948 224.072 142.676 224.376C142.42 224.664 142.204 225 142.028 225.384C141.852 225.768 141.716 226.16 141.62 226.56C141.54 226.944 141.5 227.24 141.5 227.448C141.468 227.864 141.444 228.248 141.428 228.6C141.428 228.952 141.42 229.304 141.404 229.656C141.404 230.008 141.404 230.36 141.404 230.712C141.42 231.064 141.428 231.448 141.428 231.864C141.668 232.056 141.94 232.216 142.244 232.344C142.564 232.472 142.884 232.552 143.204 232.584C143.54 232.616 143.86 232.6 144.164 232.536C144.484 232.456 144.764 232.328 145.004 232.152ZM151.668 234C151.796 233.696 151.9 233.224 151.979 232.584C152.06 231.944 152.124 231.264 152.172 230.544C152.22 229.824 152.252 229.128 152.268 228.456C152.284 227.784 152.292 227.272 152.292 226.92C152.292 225.72 152.26 224.504 152.196 223.272C152.148 222.04 151.988 220.832 151.716 219.648C152.532 219.616 153.332 219.448 154.116 219.144C154.916 218.824 155.676 218.472 156.396 218.088C156.252 218.616 156.132 219.216 156.036 219.888C155.956 220.56 155.892 221.248 155.844 221.952C155.796 222.64 155.764 223.328 155.748 224.016C155.748 224.704 155.748 225.328 155.748 225.888C155.748 226.368 155.756 226.976 155.772 227.712C155.788 228.448 155.828 229.216 155.892 230.016C155.956 230.8 156.036 231.552 156.132 232.272C156.228 232.992 156.364 233.568 156.54 234H151.668ZM170.415 228.48C170.415 229.456 170.231 230.312 169.863 231.048C169.495 231.784 169.007 232.4 168.399 232.896C167.791 233.376 167.095 233.736 166.311 233.976C165.543 234.216 164.759 234.336 163.959 234.336C163.159 234.336 162.367 234.216 161.583 233.976C160.815 233.72 160.127 233.352 159.519 232.872C158.911 232.376 158.423 231.768 158.055 231.048C157.687 230.312 157.503 229.456 157.503 228.48C157.503 227.616 157.671 226.824 158.007 226.104C158.359 225.368 158.831 224.736 159.423 224.208C160.015 223.68 160.703 223.272 161.487 222.984C162.271 222.696 163.103 222.552 163.983 222.552C164.847 222.552 165.663 222.696 166.431 222.984C167.215 223.272 167.903 223.68 168.495 224.208C169.087 224.736 169.551 225.368 169.887 226.104C170.239 226.824 170.415 227.616 170.415 228.48ZM166.383 227.952C166.287 227.584 166.143 227.136 165.951 226.608C165.759 226.064 165.519 225.536 165.231 225.024C164.943 224.512 164.599 224.064 164.199 223.68C163.815 223.296 163.383 223.08 162.903 223.032C162.391 222.984 161.991 223.16 161.703 223.56C161.431 223.944 161.255 224.44 161.175 225.048C161.095 225.656 161.087 226.32 161.151 227.04C161.231 227.744 161.367 228.384 161.559 228.96C161.799 229.712 162.095 230.44 162.447 231.144C162.815 231.832 163.199 232.4 163.599 232.848C163.999 233.296 164.399 233.576 164.799 233.688C165.215 233.784 165.583 233.624 165.903 233.208C166.175 232.856 166.367 232.464 166.479 232.032C166.607 231.584 166.679 231.128 166.695 230.664C166.711 230.2 166.687 229.736 166.623 229.272C166.559 228.808 166.479 228.368 166.383 227.952ZM181.266 224.928C181.298 225.408 181.258 225.8 181.146 226.104C181.034 226.408 180.866 226.648 180.642 226.824C180.418 226.984 180.138 227.096 179.802 227.16C179.482 227.224 179.13 227.256 178.746 227.256C178.378 227.256 178.114 227.216 177.954 227.136C177.81 227.04 177.738 226.896 177.738 226.704C177.754 226.512 177.826 226.272 177.954 225.984C178.098 225.68 178.266 225.328 178.458 224.928C178.73 224.416 178.762 224 178.554 223.68C178.346 223.36 177.978 223.2 177.45 223.2C176.986 223.2 176.618 223.36 176.346 223.68C176.074 224 175.866 224.392 175.722 224.856C175.626 225.608 175.562 226.432 175.53 227.328C175.498 228.208 175.49 229.072 175.506 229.92C175.538 230.768 175.602 231.552 175.698 232.272C175.794 232.992 175.938 233.568 176.13 234H171.378C171.49 233.744 171.586 233.36 171.666 232.848C171.762 232.336 171.842 231.768 171.906 231.144C171.97 230.504 172.018 229.832 172.05 229.128C172.082 228.424 172.082 227.752 172.05 227.112C172.034 226.472 171.986 225.896 171.906 225.384C171.826 224.872 171.714 224.48 171.57 224.208C172.002 224.192 172.402 224.136 172.77 224.04C173.154 223.944 173.522 223.824 173.874 223.68C174.242 223.536 174.594 223.376 174.93 223.2C175.282 223.024 175.642 222.84 176.01 222.648C175.978 222.744 175.938 222.928 175.89 223.2C175.858 223.472 175.826 223.672 175.794 223.8C176.338 222.968 177.13 222.552 178.17 222.552C178.538 222.552 178.898 222.6 179.25 222.696C179.602 222.792 179.922 222.936 180.21 223.128C180.498 223.32 180.738 223.568 180.93 223.872C181.122 224.16 181.234 224.512 181.266 224.928ZM188.95 231.888C189.574 231.888 190.182 231.792 190.774 231.6C191.366 231.392 191.918 231.144 192.43 230.856C192.174 231.928 191.654 232.768 190.87 233.376C190.102 233.968 189.11 234.264 187.894 234.264C186.998 234.264 186.198 234.112 185.494 233.808C184.79 233.504 184.198 233.088 183.718 232.56C183.238 232.032 182.87 231.408 182.614 230.688C182.358 229.968 182.23 229.184 182.23 228.336C182.23 227.376 182.374 226.536 182.662 225.816C182.966 225.08 183.382 224.472 183.91 223.992C184.438 223.496 185.078 223.128 185.83 222.888C186.582 222.648 187.414 222.536 188.326 222.552C188.822 222.568 189.334 222.64 189.862 222.768C190.39 222.88 190.862 223.064 191.278 223.32C191.71 223.56 192.062 223.864 192.334 224.232C192.606 224.6 192.742 225.04 192.742 225.552C192.742 226.032 192.614 226.448 192.358 226.8C192.102 227.136 191.766 227.424 191.35 227.664C190.95 227.904 190.486 228.096 189.958 228.24C189.446 228.384 188.918 228.496 188.374 228.576C187.846 228.656 187.334 228.712 186.838 228.744C186.342 228.76 185.91 228.768 185.542 228.768C185.654 229.712 185.966 230.472 186.478 231.048C187.006 231.608 187.83 231.888 188.95 231.888ZM185.542 228.408C186.054 228.344 186.558 228.24 187.054 228.096C187.55 227.936 187.99 227.72 188.374 227.448C188.758 227.176 189.07 226.84 189.31 226.44C189.55 226.024 189.67 225.528 189.67 224.952C189.67 224.728 189.638 224.488 189.574 224.232C189.51 223.976 189.414 223.744 189.286 223.536C189.158 223.312 188.99 223.128 188.782 222.984C188.574 222.84 188.326 222.768 188.038 222.768C187.462 222.768 186.998 222.992 186.646 223.44C186.294 223.872 186.022 224.392 185.83 225C185.654 225.608 185.542 226.232 185.494 226.872C185.462 227.512 185.478 228.024 185.542 228.408ZM209.08 217.608H211.336C211.176 217.8 211.024 217.984 210.88 218.16C210.752 218.336 210.616 218.536 210.472 218.76C210.328 218.984 210.168 219.248 209.992 219.552C209.816 219.84 209.608 220.2 209.368 220.632C209.336 220.68 209.248 220.84 209.104 221.112C208.96 221.384 208.784 221.72 208.576 222.12C208.368 222.504 208.144 222.92 207.904 223.368C207.68 223.816 207.464 224.24 207.256 224.64C207.064 225.04 206.904 225.384 206.776 225.672C206.648 225.96 206.584 226.136 206.584 226.2C206.584 226.68 206.592 227.288 206.608 228.024C206.64 228.76 206.68 229.512 206.728 230.28C206.792 231.048 206.88 231.784 206.992 232.488C207.12 233.192 207.28 233.76 207.472 234.192C207.264 234.144 206.944 234.104 206.512 234.072C206.08 234.056 205.616 234.04 205.12 234.024C204.624 234.024 204.136 234.016 203.656 234C203.176 234 202.776 234 202.456 234C202.616 233.44 202.736 232.84 202.816 232.2C202.912 231.56 202.976 230.912 203.008 230.256C203.056 229.584 203.08 228.928 203.08 228.288C203.096 227.632 203.104 227.016 203.104 226.44C202.576 225.176 202.048 223.984 201.52 222.864C201.296 222.384 201.056 221.896 200.8 221.4C200.544 220.888 200.28 220.4 200.008 219.936C199.752 219.472 199.496 219.04 199.24 218.64C198.984 218.24 198.736 217.904 198.496 217.632C199.408 217.632 200.296 217.632 201.16 217.632C202.04 217.632 202.936 217.624 203.848 217.608C203.848 218.024 203.944 218.584 204.136 219.288C204.328 219.976 204.56 220.704 204.832 221.472C205.12 222.224 205.408 222.952 205.696 223.656C205.984 224.36 206.224 224.928 206.416 225.36C206.608 224.928 206.848 224.36 207.136 223.656C207.44 222.936 207.728 222.2 208 221.448C208.288 220.68 208.536 219.952 208.744 219.264C208.952 218.56 209.064 218.008 209.08 217.608ZM221.134 228.48C221.134 229.456 220.95 230.312 220.582 231.048C220.214 231.784 219.726 232.4 219.118 232.896C218.51 233.376 217.814 233.736 217.03 233.976C216.262 234.216 215.478 234.336 214.678 234.336C213.878 234.336 213.086 234.216 212.302 233.976C211.534 233.72 210.846 233.352 210.238 232.872C209.63 232.376 209.142 231.768 208.774 231.048C208.406 230.312 208.222 229.456 208.222 228.48C208.222 227.616 208.39 226.824 208.726 226.104C209.078 225.368 209.55 224.736 210.142 224.208C210.734 223.68 211.422 223.272 212.206 222.984C212.99 222.696 213.822 222.552 214.702 222.552C215.566 222.552 216.382 222.696 217.15 222.984C217.934 223.272 218.622 223.68 219.214 224.208C219.806 224.736 220.27 225.368 220.606 226.104C220.958 226.824 221.134 227.616 221.134 228.48ZM217.102 227.952C217.006 227.584 216.862 227.136 216.67 226.608C216.478 226.064 216.238 225.536 215.95 225.024C215.662 224.512 215.318 224.064 214.918 223.68C214.534 223.296 214.102 223.08 213.622 223.032C213.11 222.984 212.71 223.16 212.422 223.56C212.15 223.944 211.974 224.44 211.894 225.048C211.814 225.656 211.806 226.32 211.87 227.04C211.95 227.744 212.086 228.384 212.278 228.96C212.518 229.712 212.814 230.44 213.166 231.144C213.534 231.832 213.918 232.4 214.318 232.848C214.718 233.296 215.118 233.576 215.518 233.688C215.934 233.784 216.302 233.624 216.622 233.208C216.894 232.856 217.086 232.464 217.198 232.032C217.326 231.584 217.398 231.128 217.414 230.664C217.43 230.2 217.406 229.736 217.342 229.272C217.278 228.808 217.198 228.368 217.102 227.952ZM229.513 234C229.689 233.6 229.825 233.144 229.921 232.632C230.017 232.12 230.089 231.592 230.137 231.048C229.993 231.352 229.825 231.664 229.633 231.984C229.441 232.304 229.225 232.6 228.985 232.872C228.761 233.144 228.513 233.392 228.241 233.616C227.985 233.824 227.713 233.984 227.425 234.096C227.249 234.16 227.025 234.2 226.753 234.216C226.497 234.248 226.257 234.264 226.033 234.264C225.457 234.264 224.945 234.16 224.497 233.952C224.065 233.744 223.697 233.464 223.393 233.112C223.089 232.744 222.857 232.312 222.697 231.816C222.553 231.32 222.481 230.784 222.481 230.208C222.481 229.744 222.489 229.28 222.505 228.816C222.537 228.336 222.553 227.864 222.553 227.4C222.553 227.192 222.545 226.928 222.529 226.608C222.529 226.272 222.513 225.928 222.481 225.576C222.449 225.224 222.401 224.896 222.337 224.592C222.289 224.272 222.209 224.016 222.097 223.824C222.833 223.792 223.585 223.696 224.353 223.536C225.121 223.376 225.833 223.128 226.489 222.792C226.377 223.016 226.289 223.392 226.225 223.92C226.161 224.432 226.105 224.984 226.057 225.576C226.025 226.152 226.001 226.72 225.985 227.28C225.985 227.824 225.985 228.224 225.985 228.48C225.985 228.752 225.985 229.152 225.985 229.68C226.001 230.208 226.041 230.744 226.105 231.288C226.185 231.816 226.297 232.304 226.441 232.752C226.601 233.184 226.825 233.448 227.113 233.544C227.289 233.608 227.513 233.568 227.785 233.424C228.057 233.264 228.337 233.032 228.625 232.728C228.913 232.424 229.193 232.072 229.465 231.672C229.737 231.272 229.969 230.848 230.161 230.4C230.193 229.856 230.201 229.344 230.185 228.864C230.185 228.384 230.185 227.92 230.185 227.472C230.185 227.248 230.177 226.968 230.161 226.632C230.161 226.296 230.145 225.96 230.113 225.624C230.081 225.272 230.025 224.936 229.945 224.616C229.881 224.296 229.793 224.04 229.681 223.848C230.481 223.816 231.249 223.728 231.985 223.584C232.721 223.424 233.433 223.16 234.121 222.792C234.025 223.08 233.945 223.456 233.881 223.92C233.817 224.384 233.761 224.872 233.713 225.384C233.681 225.88 233.657 226.368 233.641 226.848C233.641 227.328 233.641 227.72 233.641 228.024C233.641 228.392 233.641 228.848 233.641 229.392C233.657 229.936 233.689 230.496 233.737 231.072C233.785 231.632 233.849 232.176 233.929 232.704C234.025 233.232 234.145 233.664 234.289 234H229.513ZM245.134 224.928C245.166 225.408 245.126 225.8 245.014 226.104C244.902 226.408 244.734 226.648 244.51 226.824C244.286 226.984 244.006 227.096 243.67 227.16C243.35 227.224 242.998 227.256 242.614 227.256C242.246 227.256 241.982 227.216 241.822 227.136C241.678 227.04 241.606 226.896 241.606 226.704C241.622 226.512 241.694 226.272 241.822 225.984C241.966 225.68 242.134 225.328 242.326 224.928C242.598 224.416 242.63 224 242.422 223.68C242.214 223.36 241.846 223.2 241.318 223.2C240.854 223.2 240.486 223.36 240.214 223.68C239.942 224 239.734 224.392 239.59 224.856C239.494 225.608 239.43 226.432 239.398 227.328C239.366 228.208 239.358 229.072 239.374 229.92C239.406 230.768 239.47 231.552 239.566 232.272C239.662 232.992 239.806 233.568 239.998 234H235.246C235.358 233.744 235.454 233.36 235.534 232.848C235.63 232.336 235.71 231.768 235.774 231.144C235.838 230.504 235.886 229.832 235.918 229.128C235.95 228.424 235.95 227.752 235.918 227.112C235.902 226.472 235.854 225.896 235.774 225.384C235.694 224.872 235.582 224.48 235.438 224.208C235.87 224.192 236.27 224.136 236.638 224.04C237.022 223.944 237.39 223.824 237.742 223.68C238.11 223.536 238.462 223.376 238.798 223.2C239.15 223.024 239.51 222.84 239.878 222.648C239.846 222.744 239.806 222.928 239.758 223.2C239.726 223.472 239.694 223.672 239.662 223.8C240.206 222.968 240.998 222.552 242.038 222.552C242.406 222.552 242.766 222.6 243.118 222.696C243.47 222.792 243.79 222.936 244.078 223.128C244.366 223.32 244.606 223.568 244.798 223.872C244.99 224.16 245.102 224.512 245.134 224.928ZM255.227 217.344C255.275 217.392 255.611 217.44 256.235 217.488C256.859 217.52 257.635 217.552 258.563 217.584C259.491 217.6 260.507 217.616 261.611 217.632C262.731 217.648 263.811 217.664 264.851 217.68C265.891 217.68 266.827 217.68 267.659 217.68C268.491 217.68 269.099 217.68 269.483 217.68L269.315 221.376C268.851 220.416 268.211 219.68 267.395 219.168C266.595 218.64 265.707 218.224 264.731 217.92C264.411 219.216 264.219 220.528 264.155 221.856C264.091 223.184 264.059 224.52 264.059 225.864C264.059 227.256 264.099 228.664 264.179 230.088C264.259 231.496 264.507 232.872 264.923 234.216C264.699 234.168 264.371 234.128 263.939 234.096C263.523 234.08 263.067 234.064 262.571 234.048C262.091 234.032 261.611 234.016 261.131 234C260.667 234 260.275 234 259.955 234C260.099 233.52 260.211 232.928 260.291 232.224C260.371 231.52 260.435 230.792 260.483 230.04C260.531 229.288 260.555 228.552 260.555 227.832C260.571 227.096 260.579 226.472 260.579 225.96C260.579 224.6 260.547 223.256 260.483 221.928C260.419 220.6 260.275 219.256 260.051 217.896C259.523 218.088 259.019 218.288 258.539 218.496C258.075 218.704 257.635 218.96 257.219 219.264C256.819 219.552 256.451 219.896 256.115 220.296C255.795 220.68 255.523 221.144 255.299 221.688C255.315 221.272 255.315 220.824 255.299 220.344C255.299 219.864 255.291 219.416 255.275 219C255.275 218.584 255.267 218.224 255.251 217.92C255.235 217.616 255.227 217.424 255.227 217.344ZM277.651 222.96C277.555 223.216 277.475 223.632 277.411 224.208C277.363 224.768 277.323 225.408 277.291 226.128C277.259 226.832 277.251 227.584 277.267 228.384C277.283 229.168 277.315 229.928 277.363 230.664C277.411 231.384 277.483 232.04 277.579 232.632C277.691 233.224 277.819 233.672 277.963 233.976C277.691 233.976 277.427 233.968 277.171 233.952C276.915 233.936 276.659 233.912 276.403 233.88C275.699 233.816 275.091 233.8 274.579 233.832C274.083 233.864 273.611 233.912 273.163 233.976C272.715 234.04 272.267 234.104 271.819 234.168C271.371 234.232 270.867 234.264 270.307 234.264C269.107 234.264 268.147 233.984 267.427 233.424C266.707 232.848 266.347 231.944 266.347 230.712C266.347 230.088 266.435 229.576 266.611 229.176C266.803 228.76 267.051 228.416 267.355 228.144C267.675 227.872 268.035 227.664 268.435 227.52C268.851 227.376 269.283 227.256 269.731 227.16C269.939 227.112 270.219 227.056 270.571 226.992C270.923 226.928 271.291 226.848 271.675 226.752C272.075 226.656 272.467 226.536 272.851 226.392C273.251 226.248 273.595 226.064 273.883 225.84C273.883 225.52 273.875 225.288 273.859 225.144C273.859 225 273.843 224.824 273.811 224.616C273.699 224.408 273.491 224.2 273.187 223.992C272.899 223.784 272.579 223.6 272.227 223.44C271.891 223.264 271.547 223.128 271.195 223.032C270.843 222.936 270.555 222.904 270.331 222.936C270.155 222.968 270.011 223.056 269.899 223.2C269.787 223.344 269.731 223.528 269.731 223.752C269.731 223.992 269.755 224.264 269.803 224.568C269.851 224.856 269.859 225.136 269.827 225.408C269.811 225.68 269.723 225.912 269.563 226.104C269.403 226.28 269.115 226.368 268.699 226.368C268.283 226.368 267.955 226.224 267.715 225.936C267.475 225.632 267.355 225.256 267.355 224.808C267.355 224.312 267.459 223.912 267.667 223.608C267.875 223.288 268.139 223.048 268.459 222.888C268.795 222.728 269.163 222.632 269.563 222.6C269.963 222.552 270.363 222.552 270.763 222.6C271.147 222.648 271.515 222.728 271.867 222.84C272.235 222.952 272.595 223.072 272.947 223.2C273.315 223.328 273.667 223.448 274.003 223.56C274.355 223.656 274.707 223.72 275.059 223.752C275.347 223.784 275.595 223.784 275.803 223.752C276.027 223.704 276.235 223.64 276.427 223.56C276.635 223.48 276.835 223.392 277.027 223.296C277.219 223.184 277.427 223.072 277.651 222.96ZM273.259 233.472C273.387 232.912 273.491 232.328 273.571 231.72C273.667 231.096 273.739 230.472 273.787 229.848C273.835 229.208 273.859 228.584 273.859 227.976C273.875 227.368 273.883 226.792 273.883 226.248C273.739 226.392 273.539 226.544 273.283 226.704C273.027 226.848 272.763 226.984 272.491 227.112C272.235 227.24 271.987 227.36 271.747 227.472C271.523 227.584 271.355 227.672 271.243 227.736C270.779 227.992 270.371 228.352 270.019 228.816C269.667 229.264 269.491 229.928 269.491 230.808C269.491 231.368 269.595 231.856 269.803 232.272C270.011 232.672 270.283 232.992 270.619 233.232C270.971 233.472 271.371 233.616 271.819 233.664C272.283 233.712 272.763 233.648 273.259 233.472ZM287.813 225.936C287.589 225.696 287.309 225.432 286.973 225.144C286.637 224.84 286.277 224.56 285.893 224.304C285.509 224.032 285.117 223.808 284.717 223.632C284.317 223.44 283.949 223.344 283.613 223.344C283.293 223.344 283.069 223.408 282.941 223.536C282.813 223.648 282.749 223.792 282.749 223.968C282.749 224.144 282.789 224.336 282.869 224.544C282.965 224.736 283.077 224.912 283.205 225.072C283.589 225.552 284.045 226.048 284.573 226.56C285.101 227.072 285.621 227.504 286.133 227.856C286.437 228.096 286.725 228.336 286.997 228.576C287.269 228.816 287.509 229.072 287.717 229.344C287.925 229.6 288.085 229.88 288.197 230.184C288.325 230.472 288.389 230.792 288.389 231.144C288.389 231.704 288.277 232.184 288.053 232.584C287.845 232.968 287.557 233.288 287.189 233.544C286.821 233.784 286.389 233.96 285.893 234.072C285.397 234.2 284.877 234.264 284.333 234.264C284.061 234.264 283.797 234.224 283.541 234.144C283.301 234.08 283.061 234 282.821 233.904C282.581 233.808 282.341 233.704 282.101 233.592C281.861 233.48 281.621 233.376 281.381 233.28C280.917 233.104 280.509 233.024 280.157 233.04C279.805 233.056 279.397 233.152 278.933 233.328C279.077 233.2 279.181 233.024 279.245 232.8C279.309 232.576 279.349 232.336 279.365 232.08C279.381 231.824 279.381 231.576 279.365 231.336C279.349 231.08 279.333 230.856 279.317 230.664C279.541 231 279.813 231.344 280.133 231.696C280.453 232.048 280.789 232.368 281.141 232.656C281.493 232.944 281.845 233.176 282.197 233.352C282.549 233.528 282.877 233.616 283.181 233.616C283.437 233.616 283.677 233.552 283.901 233.424C284.141 233.28 284.261 233.064 284.261 232.776C284.261 232.344 284.133 231.952 283.877 231.6C283.621 231.248 283.301 230.904 282.917 230.568C282.533 230.232 282.117 229.896 281.669 229.56C281.237 229.224 280.829 228.864 280.445 228.48C280.061 228.096 279.741 227.672 279.485 227.208C279.229 226.744 279.101 226.216 279.101 225.624C279.101 224.68 279.389 223.936 279.965 223.392C280.541 222.832 281.325 222.552 282.317 222.552C282.893 222.552 283.389 222.64 283.805 222.816C284.221 222.992 284.605 223.184 284.957 223.392C285.309 223.6 285.645 223.792 285.965 223.968C286.285 224.144 286.637 224.232 287.021 224.232C287.149 224.232 287.293 224.216 287.453 224.184C287.629 224.152 287.781 224.112 287.909 224.064C287.845 224.368 287.805 224.68 287.789 225C287.773 225.32 287.781 225.632 287.813 225.936ZM287.813 225.936C287.589 225.696 287.309 225.424 286.973 225.12C286.637 224.816 286.277 224.536 285.893 224.28C285.509 224.008 285.117 223.784 284.717 223.608C284.317 223.416 283.949 223.32 283.613 223.32C283.293 223.32 283.069 223.384 282.941 223.512C282.813 223.624 282.749 223.768 282.749 223.944C282.749 224.12 282.789 224.312 282.869 224.52C282.965 224.712 283.077 224.888 283.205 225.048C283.589 225.544 284.045 226.048 284.573 226.56C285.101 227.056 285.621 227.48 286.133 227.832C286.437 228.072 286.725 228.312 286.997 228.552C287.269 228.792 287.509 229.048 287.717 229.32C287.925 229.576 288.085 229.856 288.197 230.16C288.325 230.464 288.389 230.792 288.389 231.144C288.389 231.704 288.277 232.184 288.053 232.584C287.845 232.968 287.557 233.288 287.189 233.544C286.821 233.784 286.389 233.96 285.893 234.072C285.397 234.2 284.877 234.264 284.333 234.264C284.061 234.264 283.797 234.224 283.541 234.144C283.301 234.08 283.061 234 282.821 233.904C282.581 233.808 282.341 233.704 282.101 233.592C281.861 233.48 281.621 233.376 281.381 233.28C280.917 233.104 280.509 233.024 280.157 233.04C279.805 233.056 279.397 233.152 278.933 233.328C279.077 233.2 279.181 233.024 279.245 232.8C279.309 232.576 279.349 232.336 279.365 232.08C279.381 231.824 279.381 231.568 279.365 231.312C279.349 231.056 279.333 230.84 279.317 230.664C279.541 231 279.813 231.344 280.133 231.696C280.453 232.048 280.789 232.368 281.141 232.656C281.493 232.944 281.845 233.176 282.197 233.352C282.549 233.528 282.877 233.616 283.181 233.616C283.437 233.616 283.677 233.552 283.901 233.424C284.141 233.28 284.261 233.064 284.261 232.776C284.261 232.344 284.133 231.952 283.877 231.6C283.621 231.232 283.301 230.888 282.917 230.568C282.533 230.232 282.117 229.896 281.669 229.56C281.237 229.224 280.829 228.864 280.445 228.48C280.061 228.08 279.741 227.656 279.485 227.208C279.229 226.744 279.101 226.216 279.101 225.624C279.101 224.664 279.389 223.912 279.965 223.368C280.541 222.824 281.325 222.552 282.317 222.552C282.893 222.552 283.389 222.64 283.805 222.816C284.221 222.992 284.605 223.184 284.957 223.392C285.309 223.6 285.645 223.792 285.965 223.968C286.285 224.144 286.637 224.232 287.021 224.232C287.149 224.232 287.293 224.216 287.453 224.184C287.629 224.136 287.781 224.088 287.909 224.04C287.845 224.36 287.805 224.68 287.789 225C287.773 225.304 287.781 225.616 287.813 225.936ZM293.491 223.248C293.459 224.16 293.443 225.072 293.443 225.984C293.459 226.896 293.467 227.656 293.467 228.264C293.467 228.584 293.467 229.04 293.467 229.632C293.483 230.208 293.531 230.792 293.611 231.384C293.707 231.976 293.859 232.504 294.067 232.968C294.291 233.432 294.619 233.704 295.051 233.784C294.827 233.944 294.563 234.064 294.259 234.144C293.955 234.224 293.651 234.264 293.347 234.264C292.771 234.264 292.267 234.152 291.835 233.928C291.419 233.704 291.067 233.408 290.779 233.04C290.507 232.656 290.299 232.208 290.155 231.696C290.027 231.184 289.963 230.64 289.963 230.064C289.963 229.136 289.971 228.216 289.987 227.304C290.019 226.392 290.035 225.472 290.035 224.544C290.035 224.416 290.027 224.28 290.011 224.136C290.011 223.976 289.987 223.832 289.939 223.704C289.907 223.576 289.843 223.472 289.747 223.392C289.651 223.296 289.515 223.248 289.339 223.248V223.008C289.867 222.992 290.323 222.88 290.707 222.672C291.107 222.448 291.483 222.184 291.835 221.88C292.187 221.56 292.531 221.224 292.867 220.872C293.203 220.504 293.563 220.176 293.947 219.888C293.819 220.304 293.723 220.776 293.659 221.304C293.595 221.832 293.547 222.4 293.515 223.008H295.339V223.248H293.491ZM302.528 231.888C303.152 231.888 303.76 231.792 304.352 231.6C304.944 231.392 305.496 231.144 306.008 230.856C305.752 231.928 305.232 232.768 304.448 233.376C303.68 233.968 302.688 234.264 301.472 234.264C300.576 234.264 299.776 234.112 299.072 233.808C298.368 233.504 297.776 233.088 297.296 232.56C296.816 232.032 296.448 231.408 296.192 230.688C295.936 229.968 295.808 229.184 295.808 228.336C295.808 227.376 295.952 226.536 296.24 225.816C296.544 225.08 296.96 224.472 297.488 223.992C298.016 223.496 298.656 223.128 299.408 222.888C300.16 222.648 300.992 222.536 301.904 222.552C302.4 222.568 302.912 222.64 303.44 222.768C303.968 222.88 304.44 223.064 304.856 223.32C305.288 223.56 305.64 223.864 305.912 224.232C306.184 224.6 306.32 225.04 306.32 225.552C306.32 226.032 306.192 226.448 305.936 226.8C305.68 227.136 305.344 227.424 304.928 227.664C304.528 227.904 304.064 228.096 303.536 228.24C303.024 228.384 302.496 228.496 301.952 228.576C301.424 228.656 300.912 228.712 300.416 228.744C299.92 228.76 299.488 228.768 299.12 228.768C299.232 229.712 299.544 230.472 300.056 231.048C300.584 231.608 301.408 231.888 302.528 231.888ZM299.12 228.408C299.632 228.344 300.136 228.24 300.632 228.096C301.128 227.936 301.568 227.72 301.952 227.448C302.336 227.176 302.648 226.84 302.888 226.44C303.128 226.024 303.248 225.528 303.248 224.952C303.248 224.728 303.216 224.488 303.152 224.232C303.088 223.976 302.992 223.744 302.864 223.536C302.736 223.312 302.568 223.128 302.36 222.984C302.152 222.84 301.904 222.768 301.616 222.768C301.04 222.768 300.576 222.992 300.224 223.44C299.872 223.872 299.6 224.392 299.408 225C299.232 225.608 299.12 226.232 299.072 226.872C299.04 227.512 299.056 228.024 299.12 228.408Z" fill="#27141A"/>
<path d="M56.12 268V256.48H57.544V261.56H63.608V256.48H65.032V268H63.608V262.912H57.544V268H56.12ZM67.4363 268V256.48H68.8603V268H67.4363ZM74.2286 268V257.832H70.3006V256.48H79.5806V257.832H75.6526V268H74.2286ZM86.5411 268V257.832H82.6131V256.48H91.8931V257.832H87.9651V268H86.5411ZM93.1669 268V256.48H94.5909V261.56H100.655V256.48H102.079V268H100.655V262.912H94.5909V268H93.1669ZM104.323 268V256.48H111.603V257.832H105.747V261.44H110.643V262.792H105.747V266.648H111.603V268H104.323ZM121.393 268.24C120.604 268.24 119.884 268.101 119.233 267.824C118.583 267.547 118.023 267.149 117.553 266.632C117.084 266.109 116.721 265.48 116.465 264.744C116.215 264.003 116.089 263.168 116.089 262.24C116.089 261.013 116.308 259.952 116.745 259.056C117.183 258.16 117.799 257.469 118.593 256.984C119.388 256.493 120.321 256.248 121.393 256.248C122.684 256.248 123.724 256.549 124.513 257.152C125.303 257.749 125.847 258.568 126.145 259.608L124.705 259.904C124.465 259.205 124.071 258.648 123.521 258.232C122.972 257.816 122.287 257.608 121.465 257.608C120.607 257.603 119.892 257.795 119.321 258.184C118.756 258.568 118.329 259.109 118.041 259.808C117.753 260.507 117.607 261.317 117.601 262.24C117.596 263.157 117.737 263.963 118.025 264.656C118.313 265.349 118.743 265.893 119.313 266.288C119.889 266.677 120.607 266.875 121.465 266.88C122.207 266.885 122.831 266.744 123.337 266.456C123.844 266.168 124.236 265.752 124.513 265.208C124.791 264.664 124.959 264.011 125.017 263.248H122.569V262.072H126.521C126.537 262.179 126.545 262.307 126.545 262.456C126.551 262.6 126.553 262.699 126.553 262.752C126.553 263.803 126.356 264.744 125.961 265.576C125.572 266.403 124.993 267.053 124.225 267.528C123.463 268.003 122.519 268.24 121.393 268.24ZM128.151 268V256.48H135.431V257.832H129.575V261.44H134.471V262.792H129.575V266.648H135.431V268H128.151ZM140.322 268V257.832H136.394V256.48H145.674V257.832H141.746V268H140.322ZM152.931 268.232C151.902 268.232 151.056 268.008 150.395 267.56C149.739 267.107 149.336 266.475 149.187 265.664L150.643 265.432C150.76 265.901 151.03 266.275 151.451 266.552C151.872 266.824 152.395 266.96 153.019 266.96C153.611 266.96 154.075 266.837 154.411 266.592C154.747 266.347 154.915 266.013 154.915 265.592C154.915 265.347 154.859 265.149 154.747 265C154.635 264.845 154.403 264.701 154.051 264.568C153.704 264.435 153.179 264.275 152.475 264.088C151.712 263.885 151.112 263.675 150.675 263.456C150.238 263.237 149.926 262.984 149.739 262.696C149.552 262.408 149.459 262.059 149.459 261.648C149.459 261.141 149.598 260.699 149.875 260.32C150.152 259.936 150.539 259.64 151.035 259.432C151.536 259.224 152.118 259.12 152.779 259.12C153.435 259.12 154.022 259.224 154.539 259.432C155.056 259.64 155.472 259.936 155.787 260.32C156.107 260.699 156.296 261.141 156.355 261.648L154.899 261.912C154.83 261.448 154.606 261.083 154.227 260.816C153.854 260.549 153.371 260.408 152.779 260.392C152.219 260.371 151.763 260.469 151.411 260.688C151.064 260.907 150.891 261.203 150.891 261.576C150.891 261.784 150.955 261.963 151.083 262.112C151.216 262.261 151.459 262.403 151.811 262.536C152.168 262.669 152.686 262.821 153.363 262.992C154.126 263.184 154.726 263.395 155.163 263.624C155.606 263.848 155.92 264.115 156.107 264.424C156.294 264.728 156.387 265.104 156.387 265.552C156.387 266.384 156.08 267.04 155.467 267.52C154.854 267.995 154.008 268.232 152.931 268.232ZM162.975 268C162.463 268.101 161.957 268.141 161.455 268.12C160.959 268.104 160.517 268.005 160.127 267.824C159.738 267.637 159.442 267.349 159.239 266.96C159.069 266.619 158.975 266.275 158.959 265.928C158.949 265.576 158.943 265.179 158.943 264.736V256.96H160.367V264.672C160.367 265.024 160.37 265.325 160.375 265.576C160.386 265.827 160.442 266.043 160.543 266.224C160.735 266.565 161.039 266.765 161.455 266.824C161.877 266.883 162.383 266.867 162.975 266.776V268ZM157.191 260.536V259.36H162.975V260.536H157.191ZM167.185 268.24C166.54 268.24 165.999 268.123 165.561 267.888C165.129 267.648 164.801 267.333 164.577 266.944C164.359 266.555 164.249 266.128 164.249 265.664C164.249 265.211 164.335 264.819 164.505 264.488C164.681 264.152 164.927 263.875 165.241 263.656C165.556 263.432 165.932 263.256 166.369 263.128C166.78 263.016 167.239 262.92 167.745 262.84C168.257 262.755 168.775 262.677 169.297 262.608C169.82 262.539 170.308 262.472 170.761 262.408L170.249 262.704C170.265 261.936 170.111 261.368 169.785 261C169.465 260.632 168.911 260.448 168.121 260.448C167.599 260.448 167.14 260.568 166.745 260.808C166.356 261.043 166.081 261.427 165.921 261.96L164.569 261.552C164.777 260.795 165.18 260.2 165.777 259.768C166.375 259.336 167.161 259.12 168.137 259.12C168.921 259.12 169.593 259.261 170.153 259.544C170.719 259.821 171.124 260.243 171.369 260.808C171.492 261.075 171.569 261.365 171.601 261.68C171.633 261.989 171.649 262.315 171.649 262.656V268H170.385V265.928L170.681 266.12C170.356 266.819 169.9 267.347 169.313 267.704C168.732 268.061 168.023 268.24 167.185 268.24ZM167.401 267.048C167.913 267.048 168.356 266.957 168.729 266.776C169.108 266.589 169.412 266.347 169.641 266.048C169.871 265.744 170.02 265.413 170.089 265.056C170.169 264.789 170.212 264.493 170.217 264.168C170.228 263.837 170.233 263.584 170.233 263.408L170.729 263.624C170.265 263.688 169.809 263.749 169.361 263.808C168.913 263.867 168.489 263.931 168.089 264C167.689 264.064 167.329 264.141 167.009 264.232C166.775 264.307 166.553 264.403 166.345 264.52C166.143 264.637 165.977 264.789 165.849 264.976C165.727 265.157 165.665 265.384 165.665 265.656C165.665 265.891 165.724 266.115 165.841 266.328C165.964 266.541 166.151 266.715 166.401 266.848C166.657 266.981 166.991 267.048 167.401 267.048ZM173.729 268V259.36H175.001V261.448L174.793 261.176C174.895 260.909 175.025 260.664 175.185 260.44C175.351 260.216 175.535 260.032 175.737 259.888C175.961 259.707 176.215 259.568 176.497 259.472C176.78 259.376 177.068 259.32 177.361 259.304C177.655 259.283 177.929 259.301 178.185 259.36V260.696C177.887 260.616 177.559 260.595 177.201 260.632C176.844 260.669 176.513 260.8 176.209 261.024C175.932 261.221 175.716 261.461 175.561 261.744C175.412 262.027 175.308 262.333 175.249 262.664C175.191 262.989 175.161 263.323 175.161 263.664V268H173.729ZM184.522 268C184.01 268.101 183.503 268.141 183.002 268.12C182.506 268.104 182.063 268.005 181.674 267.824C181.285 267.637 180.989 267.349 180.786 266.96C180.615 266.619 180.522 266.275 180.506 265.928C180.495 265.576 180.49 265.179 180.49 264.736V256.96H181.914V264.672C181.914 265.024 181.917 265.325 181.922 265.576C181.933 265.827 181.989 266.043 182.09 266.224C182.282 266.565 182.586 266.765 183.002 266.824C183.423 266.883 183.93 266.867 184.522 266.776V268ZM178.738 260.536V259.36H184.522V260.536H178.738ZM189.661 268.24C188.813 268.24 188.072 268.053 187.437 267.68C186.808 267.301 186.317 266.776 185.965 266.104C185.613 265.427 185.437 264.637 185.437 263.736C185.437 262.792 185.61 261.976 185.957 261.288C186.304 260.595 186.786 260.061 187.405 259.688C188.029 259.309 188.76 259.12 189.597 259.12C190.466 259.12 191.205 259.32 191.813 259.72C192.426 260.12 192.885 260.691 193.189 261.432C193.498 262.173 193.632 263.056 193.589 264.08H192.149V263.568C192.133 262.507 191.917 261.715 191.501 261.192C191.085 260.664 190.466 260.4 189.645 260.4C188.765 260.4 188.096 260.683 187.637 261.248C187.178 261.813 186.949 262.624 186.949 263.68C186.949 264.699 187.178 265.488 187.637 266.048C188.096 266.608 188.749 266.888 189.597 266.888C190.168 266.888 190.664 266.757 191.085 266.496C191.506 266.235 191.837 265.859 192.077 265.368L193.445 265.84C193.109 266.603 192.602 267.195 191.925 267.616C191.253 268.032 190.498 268.24 189.661 268.24ZM186.469 264.08V262.936H192.853V264.08H186.469ZM198.762 268.24C197.957 268.24 197.266 268.04 196.69 267.64C196.114 267.235 195.669 266.688 195.354 266C195.045 265.312 194.89 264.536 194.89 263.672C194.89 262.808 195.045 262.032 195.354 261.344C195.669 260.656 196.114 260.115 196.69 259.72C197.266 259.32 197.954 259.12 198.754 259.12C199.57 259.12 200.255 259.317 200.81 259.712C201.365 260.107 201.783 260.648 202.066 261.336C202.354 262.024 202.498 262.803 202.498 263.672C202.498 264.531 202.354 265.307 202.066 266C201.783 266.688 201.365 267.235 200.81 267.64C200.255 268.04 199.573 268.24 198.762 268.24ZM198.938 266.936C199.519 266.936 199.997 266.797 200.37 266.52C200.743 266.237 201.018 265.851 201.194 265.36C201.375 264.864 201.466 264.301 201.466 263.672C201.466 263.032 201.375 262.469 201.194 261.984C201.018 261.493 200.746 261.112 200.378 260.84C200.01 260.563 199.543 260.424 198.978 260.424C198.391 260.424 197.906 260.568 197.522 260.856C197.143 261.144 196.861 261.533 196.674 262.024C196.493 262.515 196.402 263.064 196.402 263.672C196.402 264.285 196.495 264.84 196.682 265.336C196.869 265.827 197.149 266.216 197.522 266.504C197.901 266.792 198.373 266.936 198.938 266.936ZM201.466 268V261.64H201.306V256.48H202.738V268H201.466ZM208.343 257.832V256.36H209.767V257.832H208.343ZM208.343 268V259.36H209.767V268H208.343ZM215.807 268.24C214.932 268.24 214.188 268.045 213.575 267.656C212.967 267.261 212.503 266.72 212.183 266.032C211.863 265.344 211.698 264.56 211.687 263.68C211.698 262.779 211.866 261.987 212.191 261.304C212.522 260.616 212.994 260.08 213.607 259.696C214.22 259.312 214.959 259.12 215.823 259.12C216.735 259.12 217.519 259.344 218.175 259.792C218.836 260.24 219.279 260.853 219.503 261.632L218.095 262.056C217.914 261.555 217.618 261.165 217.207 260.888C216.802 260.611 216.335 260.472 215.807 260.472C215.215 260.472 214.727 260.611 214.343 260.888C213.959 261.16 213.674 261.539 213.487 262.024C213.3 262.504 213.204 263.056 213.199 263.68C213.21 264.64 213.431 265.416 213.863 266.008C214.3 266.595 214.948 266.888 215.807 266.888C216.372 266.888 216.842 266.76 217.215 266.504C217.588 266.243 217.871 265.867 218.063 265.376L219.503 265.752C219.204 266.557 218.738 267.173 218.103 267.6C217.468 268.027 216.703 268.24 215.807 268.24ZM224.581 268.24C223.723 268.24 222.981 268.045 222.357 267.656C221.739 267.267 221.261 266.728 220.925 266.04C220.589 265.352 220.421 264.563 220.421 263.672C220.421 262.765 220.592 261.971 220.933 261.288C221.275 260.605 221.757 260.075 222.381 259.696C223.005 259.312 223.739 259.12 224.581 259.12C225.445 259.12 226.189 259.315 226.813 259.704C227.437 260.088 227.915 260.624 228.245 261.312C228.581 261.995 228.749 262.781 228.749 263.672C228.749 264.573 228.581 265.368 228.245 266.056C227.909 266.739 227.429 267.275 226.805 267.664C226.181 268.048 225.44 268.24 224.581 268.24ZM224.581 266.888C225.477 266.888 226.144 266.589 226.581 265.992C227.019 265.395 227.237 264.621 227.237 263.672C227.237 262.696 227.016 261.92 226.573 261.344C226.131 260.763 225.467 260.472 224.581 260.472C223.979 260.472 223.483 260.608 223.093 260.88C222.704 261.152 222.413 261.528 222.221 262.008C222.029 262.488 221.933 263.043 221.933 263.672C221.933 264.643 222.157 265.421 222.605 266.008C223.053 266.595 223.712 266.888 224.581 266.888ZM236.663 268V263.672C236.663 263.261 236.625 262.867 236.551 262.488C236.481 262.109 236.356 261.771 236.175 261.472C235.999 261.168 235.759 260.928 235.455 260.752C235.156 260.576 234.777 260.488 234.319 260.488C233.961 260.488 233.636 260.549 233.343 260.672C233.055 260.789 232.807 260.971 232.599 261.216C232.391 261.461 232.228 261.771 232.111 262.144C231.999 262.512 231.943 262.947 231.943 263.448L231.007 263.16C231.007 262.323 231.156 261.605 231.455 261.008C231.759 260.405 232.183 259.944 232.727 259.624C233.276 259.299 233.921 259.136 234.663 259.136C235.223 259.136 235.7 259.224 236.095 259.4C236.489 259.576 236.817 259.811 237.079 260.104C237.34 260.392 237.545 260.717 237.695 261.08C237.844 261.437 237.948 261.803 238.007 262.176C238.071 262.544 238.103 262.893 238.103 263.224V268H236.663ZM230.503 268V259.36H231.783V261.672H231.943V268H230.503ZM248.21 268C247.698 268.101 247.191 268.141 246.69 268.12C246.194 268.104 245.751 268.005 245.362 267.824C244.972 267.637 244.676 267.349 244.474 266.96C244.303 266.619 244.21 266.275 244.194 265.928C244.183 265.576 244.178 265.179 244.178 264.736V256.96H245.602V264.672C245.602 265.024 245.604 265.325 245.61 265.576C245.62 265.827 245.676 266.043 245.778 266.224C245.97 266.565 246.274 266.765 246.69 266.824C247.111 266.883 247.618 266.867 248.21 266.776V268ZM242.426 260.536V259.36H248.21V260.536H242.426ZM253.284 268.24C252.426 268.24 251.684 268.045 251.06 267.656C250.442 267.267 249.964 266.728 249.628 266.04C249.292 265.352 249.124 264.563 249.124 263.672C249.124 262.765 249.295 261.971 249.636 261.288C249.978 260.605 250.46 260.075 251.084 259.696C251.708 259.312 252.442 259.12 253.284 259.12C254.148 259.12 254.892 259.315 255.516 259.704C256.14 260.088 256.618 260.624 256.948 261.312C257.284 261.995 257.452 262.781 257.452 263.672C257.452 264.573 257.284 265.368 256.948 266.056C256.612 266.739 256.132 267.275 255.508 267.664C254.884 268.048 254.143 268.24 253.284 268.24ZM253.284 266.888C254.18 266.888 254.847 266.589 255.284 265.992C255.722 265.395 255.94 264.621 255.94 263.672C255.94 262.696 255.719 261.92 255.276 261.344C254.834 260.763 254.17 260.472 253.284 260.472C252.682 260.472 252.186 260.608 251.796 260.88C251.407 261.152 251.116 261.528 250.924 262.008C250.732 262.488 250.636 263.043 250.636 263.672C250.636 264.643 250.86 265.421 251.308 266.008C251.756 266.595 252.415 266.888 253.284 266.888ZM265.681 268.232C264.652 268.232 263.806 268.008 263.145 267.56C262.489 267.107 262.086 266.475 261.937 265.664L263.393 265.432C263.51 265.901 263.78 266.275 264.201 266.552C264.622 266.824 265.145 266.96 265.769 266.96C266.361 266.96 266.825 266.837 267.161 266.592C267.497 266.347 267.665 266.013 267.665 265.592C267.665 265.347 267.609 265.149 267.497 265C267.385 264.845 267.153 264.701 266.801 264.568C266.454 264.435 265.929 264.275 265.225 264.088C264.462 263.885 263.862 263.675 263.425 263.456C262.988 263.237 262.676 262.984 262.489 262.696C262.302 262.408 262.209 262.059 262.209 261.648C262.209 261.141 262.348 260.699 262.625 260.32C262.902 259.936 263.289 259.64 263.785 259.432C264.286 259.224 264.868 259.12 265.529 259.12C266.185 259.12 266.772 259.224 267.289 259.432C267.806 259.64 268.222 259.936 268.537 260.32C268.857 260.699 269.046 261.141 269.105 261.648L267.649 261.912C267.58 261.448 267.356 261.083 266.977 260.816C266.604 260.549 266.121 260.408 265.529 260.392C264.969 260.371 264.513 260.469 264.161 260.688C263.814 260.907 263.641 261.203 263.641 261.576C263.641 261.784 263.705 261.963 263.833 262.112C263.966 262.261 264.209 262.403 264.561 262.536C264.918 262.669 265.436 262.821 266.113 262.992C266.876 263.184 267.476 263.395 267.913 263.624C268.356 263.848 268.67 264.115 268.857 264.424C269.044 264.728 269.137 265.104 269.137 265.552C269.137 266.384 268.83 267.04 268.217 267.52C267.604 267.995 266.758 268.232 265.681 268.232ZM274.181 268.224C273.627 268.224 273.149 268.136 272.749 267.96C272.355 267.784 272.027 267.549 271.765 267.256C271.504 266.963 271.299 266.637 271.149 266.28C271 265.923 270.893 265.557 270.829 265.184C270.771 264.811 270.741 264.461 270.741 264.136V259.36H272.181V263.688C272.181 264.093 272.219 264.485 272.293 264.864C272.368 265.243 272.493 265.584 272.669 265.888C272.851 266.192 273.091 266.432 273.389 266.608C273.693 266.784 274.072 266.872 274.525 266.872C274.883 266.872 275.208 266.811 275.501 266.688C275.795 266.565 276.045 266.384 276.253 266.144C276.461 265.899 276.621 265.589 276.733 265.216C276.845 264.843 276.901 264.408 276.901 263.912L277.837 264.2C277.837 265.032 277.685 265.749 277.381 266.352C277.083 266.955 276.659 267.419 276.109 267.744C275.565 268.064 274.923 268.224 274.181 268.224ZM277.061 268V265.688H276.901V259.36H278.333V268H277.061ZM280.573 268V259.36H281.845V261.448L281.637 261.176C281.738 260.909 281.869 260.664 282.029 260.44C282.194 260.216 282.378 260.032 282.581 259.888C282.805 259.707 283.058 259.568 283.341 259.472C283.624 259.376 283.912 259.32 284.205 259.304C284.498 259.283 284.773 259.301 285.029 259.36V260.696C284.73 260.616 284.402 260.595 284.045 260.632C283.688 260.669 283.357 260.8 283.053 261.024C282.776 261.221 282.56 261.461 282.405 261.744C282.256 262.027 282.152 262.333 282.093 262.664C282.034 262.989 282.005 263.323 282.005 263.664V268H280.573ZM287.366 268V258.888C287.366 258.664 287.377 258.437 287.398 258.208C287.419 257.973 287.467 257.747 287.542 257.528C287.617 257.304 287.739 257.099 287.91 256.912C288.107 256.693 288.323 256.539 288.558 256.448C288.793 256.352 289.03 256.293 289.27 256.272C289.515 256.251 289.747 256.24 289.966 256.24H291.062V257.424H290.046C289.625 257.424 289.31 257.528 289.102 257.736C288.894 257.939 288.79 258.248 288.79 258.664V268H287.366ZM285.902 260.536V259.36H291.062V260.536H285.902ZM300.366 268C299.854 268.101 299.347 268.141 298.846 268.12C298.35 268.104 297.907 268.005 297.518 267.824C297.129 267.637 296.833 267.349 296.63 266.96C296.459 266.619 296.366 266.275 296.35 265.928C296.339 265.576 296.334 265.179 296.334 264.736V256.96H297.758V264.672C297.758 265.024 297.761 265.325 297.766 265.576C297.777 265.827 297.833 266.043 297.934 266.224C298.126 266.565 298.43 266.765 298.846 266.824C299.267 266.883 299.774 266.867 300.366 266.776V268ZM294.582 260.536V259.36H300.366V260.536H294.582ZM308.272 268V263.672C308.272 263.261 308.235 262.867 308.16 262.488C308.091 262.109 307.965 261.771 307.784 261.472C307.608 261.168 307.368 260.928 307.064 260.752C306.765 260.576 306.387 260.488 305.928 260.488C305.571 260.488 305.245 260.549 304.952 260.672C304.664 260.789 304.416 260.971 304.208 261.216C304 261.461 303.837 261.771 303.72 262.144C303.608 262.512 303.552 262.947 303.552 263.448L302.616 263.16C302.616 262.323 302.765 261.605 303.064 261.008C303.368 260.405 303.792 259.944 304.336 259.624C304.885 259.299 305.531 259.136 306.272 259.136C306.832 259.136 307.309 259.224 307.704 259.4C308.099 259.576 308.427 259.811 308.688 260.104C308.949 260.392 309.155 260.717 309.304 261.08C309.453 261.437 309.557 261.803 309.616 262.176C309.68 262.544 309.712 262.893 309.712 263.224V268H308.272ZM302.112 268V256.48H303.392V262.84H303.552V268H302.112ZM311.792 268V259.36H313.064V261.448L312.856 261.176C312.957 260.909 313.088 260.664 313.248 260.44C313.413 260.216 313.597 260.032 313.8 259.888C314.024 259.707 314.277 259.568 314.56 259.472C314.843 259.376 315.131 259.32 315.424 259.304C315.717 259.283 315.992 259.301 316.248 259.36V260.696C315.949 260.616 315.621 260.595 315.264 260.632C314.907 260.669 314.576 260.8 314.272 261.024C313.995 261.221 313.779 261.461 313.624 261.744C313.475 262.027 313.371 262.333 313.312 262.664C313.253 262.989 313.224 263.323 313.224 263.664V268H311.792ZM321.284 268.24C320.426 268.24 319.684 268.045 319.06 267.656C318.442 267.267 317.964 266.728 317.628 266.04C317.292 265.352 317.124 264.563 317.124 263.672C317.124 262.765 317.295 261.971 317.636 261.288C317.978 260.605 318.46 260.075 319.084 259.696C319.708 259.312 320.442 259.12 321.284 259.12C322.148 259.12 322.892 259.315 323.516 259.704C324.14 260.088 324.618 260.624 324.948 261.312C325.284 261.995 325.452 262.781 325.452 263.672C325.452 264.573 325.284 265.368 324.948 266.056C324.612 266.739 324.132 267.275 323.508 267.664C322.884 268.048 322.143 268.24 321.284 268.24ZM321.284 266.888C322.18 266.888 322.847 266.589 323.284 265.992C323.722 265.395 323.94 264.621 323.94 263.672C323.94 262.696 323.719 261.92 323.276 261.344C322.834 260.763 322.17 260.472 321.284 260.472C320.682 260.472 320.186 260.608 319.796 260.88C319.407 261.152 319.116 261.528 318.924 262.008C318.732 262.488 318.636 263.043 318.636 263.672C318.636 264.643 318.86 265.421 319.308 266.008C319.756 266.595 320.415 266.888 321.284 266.888ZM330.494 268.224C329.939 268.224 329.462 268.136 329.062 267.96C328.667 267.784 328.339 267.549 328.078 267.256C327.816 266.963 327.611 266.637 327.462 266.28C327.312 265.923 327.206 265.557 327.142 265.184C327.083 264.811 327.054 264.461 327.054 264.136V259.36H328.494V263.688C328.494 264.093 328.531 264.485 328.606 264.864C328.68 265.243 328.806 265.584 328.982 265.888C329.163 266.192 329.403 266.432 329.702 266.608C330.006 266.784 330.384 266.872 330.838 266.872C331.195 266.872 331.52 266.811 331.814 266.688C332.107 266.565 332.358 266.384 332.566 266.144C332.774 265.899 332.934 265.589 333.046 265.216C333.158 264.843 333.214 264.408 333.214 263.912L334.15 264.2C334.15 265.032 333.998 265.749 333.694 266.352C333.395 266.955 332.971 267.419 332.422 267.744C331.878 268.064 331.235 268.224 330.494 268.224ZM333.374 268V265.688H333.214V259.36H334.646V268H333.374ZM340.382 272.08C339.928 272.08 339.486 272.011 339.054 271.872C338.622 271.733 338.224 271.523 337.862 271.24C337.504 270.963 337.206 270.611 336.966 270.184L338.27 269.496C338.483 269.917 338.784 270.224 339.174 270.416C339.568 270.608 339.974 270.704 340.39 270.704C340.939 270.704 341.395 270.603 341.758 270.4C342.12 270.203 342.387 269.907 342.558 269.512C342.734 269.117 342.819 268.627 342.814 268.04V265.68H342.982V259.36H344.246V268.056C344.246 268.291 344.238 268.517 344.222 268.736C344.211 268.955 344.184 269.171 344.142 269.384C344.03 269.997 343.808 270.501 343.478 270.896C343.147 271.296 342.72 271.592 342.198 271.784C341.675 271.981 341.07 272.08 340.382 272.08ZM340.278 268.24C339.472 268.24 338.782 268.04 338.206 267.64C337.63 267.235 337.184 266.688 336.87 266C336.56 265.312 336.406 264.536 336.406 263.672C336.406 262.808 336.56 262.032 336.87 261.344C337.184 260.656 337.63 260.115 338.206 259.72C338.782 259.32 339.47 259.12 340.27 259.12C341.086 259.12 341.771 259.317 342.326 259.712C342.88 260.107 343.299 260.648 343.582 261.336C343.87 262.024 344.014 262.803 344.014 263.672C344.014 264.531 343.87 265.307 343.582 266C343.299 266.688 342.88 267.235 342.326 267.64C341.771 268.04 341.088 268.24 340.278 268.24ZM340.454 266.936C341.035 266.936 341.512 266.797 341.886 266.52C342.259 266.237 342.534 265.851 342.71 265.36C342.891 264.864 342.982 264.301 342.982 263.672C342.982 263.032 342.891 262.469 342.71 261.984C342.534 261.493 342.262 261.112 341.894 260.84C341.526 260.563 341.059 260.424 340.494 260.424C339.907 260.424 339.422 260.568 339.038 260.856C338.659 261.144 338.376 261.533 338.19 262.024C338.008 262.515 337.918 263.064 337.918 263.672C337.918 264.285 338.011 264.84 338.198 265.336C338.384 265.827 338.664 266.216 339.038 266.504C339.416 266.792 339.888 266.936 340.454 266.936ZM352.631 268V263.672C352.631 263.261 352.594 262.867 352.519 262.488C352.45 262.109 352.325 261.771 352.143 261.472C351.967 261.168 351.727 260.928 351.423 260.752C351.125 260.576 350.746 260.488 350.287 260.488C349.93 260.488 349.605 260.549 349.311 260.672C349.023 260.789 348.775 260.971 348.567 261.216C348.359 261.461 348.197 261.771 348.079 262.144C347.967 262.512 347.911 262.947 347.911 263.448L346.975 263.16C346.975 262.323 347.125 261.605 347.423 261.008C347.727 260.405 348.151 259.944 348.695 259.624C349.245 259.299 349.89 259.136 350.631 259.136C351.191 259.136 351.669 259.224 352.063 259.4C352.458 259.576 352.786 259.811 353.047 260.104C353.309 260.392 353.514 260.717 353.663 261.08C353.813 261.437 353.917 261.803 353.975 262.176C354.039 262.544 354.071 262.893 354.071 263.224V268H352.631ZM346.471 268V256.48H347.751V262.84H347.911V268H346.471ZM58.456 290L55.32 281.36H56.76L59.184 288.184L61.6 281.36H63.048L59.912 290H58.456ZM66.4666 290.24C65.8213 290.24 65.28 290.123 64.8426 289.888C64.4106 289.648 64.0826 289.333 63.8586 288.944C63.64 288.555 63.5306 288.128 63.5306 287.664C63.5306 287.211 63.616 286.819 63.7866 286.488C63.9626 286.152 64.208 285.875 64.5226 285.656C64.8373 285.432 65.2133 285.256 65.6506 285.128C66.0613 285.016 66.52 284.92 67.0266 284.84C67.5386 284.755 68.056 284.677 68.5786 284.608C69.1013 284.539 69.5893 284.472 70.0426 284.408L69.5306 284.704C69.5466 283.936 69.392 283.368 69.0666 283C68.7466 282.632 68.192 282.448 67.4026 282.448C66.88 282.448 66.4213 282.568 66.0266 282.808C65.6373 283.043 65.3626 283.427 65.2026 283.96L63.8506 283.552C64.0586 282.795 64.4613 282.2 65.0586 281.768C65.656 281.336 66.4426 281.12 67.4186 281.12C68.2026 281.12 68.8746 281.261 69.4346 281.544C70 281.821 70.4053 282.243 70.6506 282.808C70.7733 283.075 70.8506 283.365 70.8826 283.68C70.9146 283.989 70.9306 284.315 70.9306 284.656V290H69.6666V287.928L69.9626 288.12C69.6373 288.819 69.1813 289.347 68.5946 289.704C68.0133 290.061 67.304 290.24 66.4666 290.24ZM66.6826 289.048C67.1946 289.048 67.6373 288.957 68.0106 288.776C68.3893 288.589 68.6933 288.347 68.9226 288.048C69.152 287.744 69.3013 287.413 69.3706 287.056C69.4506 286.789 69.4933 286.493 69.4986 286.168C69.5093 285.837 69.5146 285.584 69.5146 285.408L70.0106 285.624C69.5466 285.688 69.0906 285.749 68.6426 285.808C68.1946 285.867 67.7706 285.931 67.3706 286C66.9706 286.064 66.6106 286.141 66.2906 286.232C66.056 286.307 65.8346 286.403 65.6266 286.52C65.424 286.637 65.2586 286.789 65.1306 286.976C65.008 287.157 64.9466 287.384 64.9466 287.656C64.9466 287.891 65.0053 288.115 65.1226 288.328C65.2453 288.541 65.432 288.715 65.6826 288.848C65.9386 288.981 66.272 289.048 66.6826 289.048ZM73.0106 290V281.36H74.2826V283.448L74.0746 283.176C74.176 282.909 74.3066 282.664 74.4666 282.44C74.632 282.216 74.816 282.032 75.0186 281.888C75.2426 281.707 75.496 281.568 75.7786 281.472C76.0613 281.376 76.3493 281.32 76.6426 281.304C76.936 281.283 77.2106 281.301 77.4666 281.36V282.696C77.168 282.616 76.84 282.595 76.4826 282.632C76.1253 282.669 75.7946 282.8 75.4906 283.024C75.2133 283.221 74.9973 283.461 74.8426 283.744C74.6933 284.027 74.5893 284.333 74.5306 284.664C74.472 284.989 74.4426 285.323 74.4426 285.664V290H73.0106ZM79.1394 279.832V278.36H80.5634V279.832H79.1394ZM79.1394 290V281.36H80.5634V290H79.1394ZM86.6438 290.24C85.7851 290.24 85.0438 290.045 84.4198 289.656C83.8011 289.267 83.3238 288.728 82.9878 288.04C82.6518 287.352 82.4838 286.563 82.4838 285.672C82.4838 284.765 82.6544 283.971 82.9958 283.288C83.3371 282.605 83.8198 282.075 84.4438 281.696C85.0678 281.312 85.8011 281.12 86.6438 281.12C87.5078 281.12 88.2518 281.315 88.8758 281.704C89.4998 282.088 89.9771 282.624 90.3078 283.312C90.6438 283.995 90.8118 284.781 90.8118 285.672C90.8118 286.573 90.6438 287.368 90.3078 288.056C89.9718 288.739 89.4918 289.275 88.8678 289.664C88.2438 290.048 87.5024 290.24 86.6438 290.24ZM86.6438 288.888C87.5398 288.888 88.2064 288.589 88.6438 287.992C89.0811 287.395 89.2998 286.621 89.2998 285.672C89.2998 284.696 89.0784 283.92 88.6358 283.344C88.1931 282.763 87.5291 282.472 86.6438 282.472C86.0411 282.472 85.5451 282.608 85.1558 282.88C84.7664 283.152 84.4758 283.528 84.2838 284.008C84.0918 284.488 83.9958 285.043 83.9958 285.672C83.9958 286.643 84.2198 287.421 84.6678 288.008C85.1158 288.595 85.7744 288.888 86.6438 288.888ZM95.8531 290.224C95.2985 290.224 94.8211 290.136 94.4211 289.96C94.0265 289.784 93.6985 289.549 93.4371 289.256C93.1758 288.963 92.9705 288.637 92.8211 288.28C92.6718 287.923 92.5651 287.557 92.5011 287.184C92.4425 286.811 92.4131 286.461 92.4131 286.136V281.36H93.8531V285.688C93.8531 286.093 93.8905 286.485 93.9651 286.864C94.0398 287.243 94.1651 287.584 94.3411 287.888C94.5225 288.192 94.7625 288.432 95.0611 288.608C95.3651 288.784 95.7438 288.872 96.1971 288.872C96.5545 288.872 96.8798 288.811 97.1731 288.688C97.4665 288.565 97.7171 288.384 97.9251 288.144C98.1331 287.899 98.2931 287.589 98.4051 287.216C98.5171 286.843 98.5731 286.408 98.5731 285.912L99.5091 286.2C99.5091 287.032 99.3571 287.749 99.0531 288.352C98.7545 288.955 98.3305 289.419 97.7811 289.744C97.2371 290.064 96.5945 290.224 95.8531 290.224ZM98.7331 290V287.688H98.5731V281.36H100.005V290H98.7331ZM105.509 290.232C104.48 290.232 103.634 290.008 102.973 289.56C102.317 289.107 101.914 288.475 101.765 287.664L103.221 287.432C103.338 287.901 103.608 288.275 104.029 288.552C104.45 288.824 104.973 288.96 105.597 288.96C106.189 288.96 106.653 288.837 106.989 288.592C107.325 288.347 107.493 288.013 107.493 287.592C107.493 287.347 107.437 287.149 107.325 287C107.213 286.845 106.981 286.701 106.629 286.568C106.282 286.435 105.757 286.275 105.053 286.088C104.29 285.885 103.69 285.675 103.253 285.456C102.816 285.237 102.504 284.984 102.317 284.696C102.13 284.408 102.037 284.059 102.037 283.648C102.037 283.141 102.176 282.699 102.453 282.32C102.73 281.936 103.117 281.64 103.613 281.432C104.114 281.224 104.696 281.12 105.357 281.12C106.013 281.12 106.6 281.224 107.117 281.432C107.634 281.64 108.05 281.936 108.365 282.32C108.685 282.699 108.874 283.141 108.933 283.648L107.477 283.912C107.408 283.448 107.184 283.083 106.805 282.816C106.432 282.549 105.949 282.408 105.357 282.392C104.797 282.371 104.341 282.469 103.989 282.688C103.642 282.907 103.469 283.203 103.469 283.576C103.469 283.784 103.533 283.963 103.661 284.112C103.794 284.261 104.037 284.403 104.389 284.536C104.746 284.669 105.264 284.821 105.941 284.992C106.704 285.184 107.304 285.395 107.741 285.624C108.184 285.848 108.498 286.115 108.685 286.424C108.872 286.728 108.965 287.104 108.965 287.552C108.965 288.384 108.658 289.04 108.045 289.52C107.432 289.995 106.586 290.232 105.509 290.232ZM114.093 290V278.24H115.517V290H114.093ZM118.077 279.832V278.36H119.501V279.832H118.077ZM118.077 290V281.36H119.501V290H118.077ZM125.293 290.24C124.488 290.24 123.797 290.04 123.221 289.64C122.645 289.235 122.2 288.688 121.885 288C121.576 287.312 121.421 286.536 121.421 285.672C121.421 284.808 121.576 284.032 121.885 283.344C122.2 282.656 122.645 282.115 123.221 281.72C123.797 281.32 124.485 281.12 125.285 281.12C126.101 281.12 126.787 281.317 127.341 281.712C127.896 282.107 128.315 282.648 128.597 283.336C128.885 284.024 129.029 284.803 129.029 285.672C129.029 286.531 128.885 287.307 128.597 288C128.315 288.688 127.896 289.235 127.341 289.64C126.787 290.04 126.104 290.24 125.293 290.24ZM125.469 288.936C126.051 288.936 126.528 288.797 126.901 288.52C127.275 288.237 127.549 287.851 127.725 287.36C127.907 286.864 127.997 286.301 127.997 285.672C127.997 285.032 127.907 284.469 127.725 283.984C127.549 283.493 127.277 283.112 126.909 282.84C126.541 282.563 126.075 282.424 125.509 282.424C124.923 282.424 124.437 282.568 124.053 282.856C123.675 283.144 123.392 283.533 123.205 284.024C123.024 284.515 122.933 285.064 122.933 285.672C122.933 286.285 123.027 286.84 123.213 287.336C123.4 287.827 123.68 288.216 124.053 288.504C124.432 288.792 124.904 288.936 125.469 288.936ZM127.837 293.84V287.72H127.997V281.36H129.269V293.84H127.837ZM134.791 290.224C134.236 290.224 133.759 290.136 133.359 289.96C132.964 289.784 132.636 289.549 132.375 289.256C132.113 288.963 131.908 288.637 131.759 288.28C131.609 287.923 131.503 287.557 131.439 287.184C131.38 286.811 131.351 286.461 131.351 286.136V281.36H132.791V285.688C132.791 286.093 132.828 286.485 132.903 286.864C132.977 287.243 133.103 287.584 133.279 287.888C133.46 288.192 133.7 288.432 133.999 288.608C134.303 288.784 134.681 288.872 135.135 288.872C135.492 288.872 135.817 288.811 136.111 288.688C136.404 288.565 136.655 288.384 136.863 288.144C137.071 287.899 137.231 287.589 137.343 287.216C137.455 286.843 137.511 286.408 137.511 285.912L138.447 286.2C138.447 287.032 138.295 287.749 137.991 288.352C137.692 288.955 137.268 289.419 136.719 289.744C136.175 290.064 135.532 290.224 134.791 290.224ZM137.671 290V287.688H137.511V281.36H138.943V290H137.671ZM144.863 290.24C144.004 290.24 143.263 290.045 142.639 289.656C142.02 289.267 141.543 288.728 141.207 288.04C140.871 287.352 140.703 286.563 140.703 285.672C140.703 284.765 140.873 283.971 141.215 283.288C141.556 282.605 142.039 282.075 142.663 281.696C143.287 281.312 144.02 281.12 144.863 281.12C145.727 281.12 146.471 281.315 147.095 281.704C147.719 282.088 148.196 282.624 148.527 283.312C148.863 283.995 149.031 284.781 149.031 285.672C149.031 286.573 148.863 287.368 148.527 288.056C148.191 288.739 147.711 289.275 147.087 289.664C146.463 290.048 145.721 290.24 144.863 290.24ZM144.863 288.888C145.759 288.888 146.425 288.589 146.863 287.992C147.3 287.395 147.519 286.621 147.519 285.672C147.519 284.696 147.297 283.92 146.855 283.344C146.412 282.763 145.748 282.472 144.863 282.472C144.26 282.472 143.764 282.608 143.375 282.88C142.985 283.152 142.695 283.528 142.503 284.008C142.311 284.488 142.215 285.043 142.215 285.672C142.215 286.643 142.439 287.421 142.887 288.008C143.335 288.595 143.993 288.888 144.863 288.888ZM150.792 290V281.36H152.064V283.448L151.856 283.176C151.957 282.909 152.088 282.664 152.248 282.44C152.413 282.216 152.597 282.032 152.8 281.888C153.024 281.707 153.277 281.568 153.56 281.472C153.843 281.376 154.131 281.32 154.424 281.304C154.717 281.283 154.992 281.301 155.248 281.36V282.696C154.949 282.616 154.621 282.595 154.264 282.632C153.907 282.669 153.576 282.8 153.272 283.024C152.995 283.221 152.779 283.461 152.624 283.744C152.475 284.027 152.371 284.333 152.312 284.664C152.253 284.989 152.224 285.323 152.224 285.664V290H150.792ZM163.644 290.24C162.785 290.24 162.044 290.045 161.42 289.656C160.801 289.267 160.324 288.728 159.988 288.04C159.652 287.352 159.484 286.563 159.484 285.672C159.484 284.765 159.654 283.971 159.996 283.288C160.337 282.605 160.82 282.075 161.444 281.696C162.068 281.312 162.801 281.12 163.644 281.12C164.508 281.12 165.252 281.315 165.876 281.704C166.5 282.088 166.977 282.624 167.308 283.312C167.644 283.995 167.812 284.781 167.812 285.672C167.812 286.573 167.644 287.368 167.308 288.056C166.972 288.739 166.492 289.275 165.868 289.664C165.244 290.048 164.502 290.24 163.644 290.24ZM163.644 288.888C164.54 288.888 165.206 288.589 165.644 287.992C166.081 287.395 166.3 286.621 166.3 285.672C166.3 284.696 166.078 283.92 165.636 283.344C165.193 282.763 164.529 282.472 163.644 282.472C163.041 282.472 162.545 282.608 162.156 282.88C161.766 283.152 161.476 283.528 161.284 284.008C161.092 284.488 160.996 285.043 160.996 285.672C160.996 286.643 161.22 287.421 161.668 288.008C162.116 288.595 162.774 288.888 163.644 288.888ZM173.541 290.24C172.73 290.24 172.048 290.04 171.493 289.64C170.938 289.235 170.517 288.688 170.229 288C169.946 287.307 169.805 286.531 169.805 285.672C169.805 284.803 169.946 284.024 170.229 283.336C170.517 282.648 170.938 282.107 171.493 281.712C172.053 281.317 172.738 281.12 173.549 281.12C174.349 281.12 175.037 281.32 175.613 281.72C176.194 282.115 176.64 282.656 176.949 283.344C177.258 284.032 177.413 284.808 177.413 285.672C177.413 286.536 177.258 287.312 176.949 288C176.64 288.688 176.194 289.235 175.613 289.64C175.037 290.04 174.346 290.24 173.541 290.24ZM169.565 293.84V281.36H170.837V287.72H170.997V293.84H169.565ZM173.365 288.936C173.936 288.936 174.408 288.792 174.781 288.504C175.154 288.216 175.434 287.827 175.621 287.336C175.808 286.84 175.901 286.285 175.901 285.672C175.901 285.064 175.808 284.515 175.621 284.024C175.44 283.533 175.157 283.144 174.773 282.856C174.394 282.568 173.912 282.424 173.325 282.424C172.765 282.424 172.301 282.563 171.933 282.84C171.565 283.112 171.29 283.493 171.109 283.984C170.928 284.469 170.837 285.032 170.837 285.672C170.837 286.301 170.925 286.864 171.101 287.36C171.282 287.851 171.56 288.237 171.933 288.52C172.306 288.797 172.784 288.936 173.365 288.936ZM183.991 290C183.479 290.101 182.972 290.141 182.471 290.12C181.975 290.104 181.532 290.005 181.143 289.824C180.754 289.637 180.458 289.349 180.255 288.96C180.084 288.619 179.991 288.275 179.975 287.928C179.964 287.576 179.959 287.179 179.959 286.736V278.96H181.383V286.672C181.383 287.024 181.386 287.325 181.391 287.576C181.402 287.827 181.458 288.043 181.559 288.224C181.751 288.565 182.055 288.765 182.471 288.824C182.892 288.883 183.399 288.867 183.991 288.776V290ZM178.207 282.536V281.36H183.991V282.536H178.207ZM185.905 279.832V278.36H187.329V279.832H185.905ZM185.905 290V281.36H187.329V290H185.905ZM193.409 290.24C192.551 290.24 191.809 290.045 191.185 289.656C190.567 289.267 190.089 288.728 189.753 288.04C189.417 287.352 189.249 286.563 189.249 285.672C189.249 284.765 189.42 283.971 189.761 283.288C190.103 282.605 190.585 282.075 191.209 281.696C191.833 281.312 192.567 281.12 193.409 281.12C194.273 281.12 195.017 281.315 195.641 281.704C196.265 282.088 196.743 282.624 197.073 283.312C197.409 283.995 197.577 284.781 197.577 285.672C197.577 286.573 197.409 287.368 197.073 288.056C196.737 288.739 196.257 289.275 195.633 289.664C195.009 290.048 194.268 290.24 193.409 290.24ZM193.409 288.888C194.305 288.888 194.972 288.589 195.409 287.992C195.847 287.395 196.065 286.621 196.065 285.672C196.065 284.696 195.844 283.92 195.401 283.344C194.959 282.763 194.295 282.472 193.409 282.472C192.807 282.472 192.311 282.608 191.921 282.88C191.532 283.152 191.241 283.528 191.049 284.008C190.857 284.488 190.761 285.043 190.761 285.672C190.761 286.643 190.985 287.421 191.433 288.008C191.881 288.595 192.54 288.888 193.409 288.888ZM205.491 290V285.672C205.491 285.261 205.453 284.867 205.379 284.488C205.309 284.109 205.184 283.771 205.003 283.472C204.827 283.168 204.587 282.928 204.283 282.752C203.984 282.576 203.605 282.488 203.147 282.488C202.789 282.488 202.464 282.549 202.171 282.672C201.883 282.789 201.635 282.971 201.427 283.216C201.219 283.461 201.056 283.771 200.939 284.144C200.827 284.512 200.771 284.947 200.771 285.448L199.835 285.16C199.835 284.323 199.984 283.605 200.283 283.008C200.587 282.405 201.011 281.944 201.555 281.624C202.104 281.299 202.749 281.136 203.491 281.136C204.051 281.136 204.528 281.224 204.923 281.4C205.317 281.576 205.645 281.811 205.907 282.104C206.168 282.392 206.373 282.717 206.523 283.08C206.672 283.437 206.776 283.803 206.835 284.176C206.899 284.544 206.931 284.893 206.931 285.224V290H205.491ZM199.331 290V281.36H200.611V283.672H200.771V290H199.331ZM212.275 290.232C211.245 290.232 210.4 290.008 209.739 289.56C209.083 289.107 208.68 288.475 208.531 287.664L209.987 287.432C210.104 287.901 210.373 288.275 210.795 288.552C211.216 288.824 211.739 288.96 212.363 288.96C212.955 288.96 213.419 288.837 213.755 288.592C214.091 288.347 214.259 288.013 214.259 287.592C214.259 287.347 214.203 287.149 214.091 287C213.979 286.845 213.747 286.701 213.395 286.568C213.048 286.435 212.523 286.275 211.819 286.088C211.056 285.885 210.456 285.675 210.019 285.456C209.581 285.237 209.269 284.984 209.083 284.696C208.896 284.408 208.803 284.059 208.803 283.648C208.803 283.141 208.941 282.699 209.219 282.32C209.496 281.936 209.883 281.64 210.379 281.432C210.88 281.224 211.461 281.12 212.123 281.12C212.779 281.12 213.365 281.224 213.883 281.432C214.4 281.64 214.816 281.936 215.131 282.32C215.451 282.699 215.64 283.141 215.699 283.648L214.243 283.912C214.173 283.448 213.949 283.083 213.571 282.816C213.197 282.549 212.715 282.408 212.123 282.392C211.563 282.371 211.107 282.469 210.755 282.688C210.408 282.907 210.235 283.203 210.235 283.576C210.235 283.784 210.299 283.963 210.427 284.112C210.56 284.261 210.803 284.403 211.155 284.536C211.512 284.669 212.029 284.821 212.707 284.992C213.469 285.184 214.069 285.395 214.507 285.624C214.949 285.848 215.264 286.115 215.451 286.424C215.637 286.728 215.731 287.104 215.731 287.552C215.731 288.384 215.424 289.04 214.811 289.52C214.197 289.995 213.352 290.232 212.275 290.232Z" fill="#666666"/>
<rect x="147" y="46" width="126" height="126" rx="63" fill="#FF7262" fill-opacity="0.1"/>
<g clip-path="url(#clip0_47_7880)">
<path d="M232.06 90.7531C233.203 89.1726 233.4 86 233.4 86H187C187 86 187.197 89.1726 188.34 90.7531L207.3 115V132.4H201.5C195.7 132.4 195.7 138.2 195.7 138.2H224.7C224.7 138.2 224.7 132.4 218.9 132.4H213.1V115L232.06 90.7531V90.7531ZM208.46 100.5C208.46 99.2694 208.949 98.0892 209.819 97.219C210.689 96.3489 211.869 95.86 213.1 95.86C214.331 95.86 215.511 96.3489 216.381 97.219C217.251 98.0892 217.74 99.2694 217.74 100.5C217.74 101.731 217.251 102.911 216.381 103.781C215.511 104.651 214.331 105.14 213.1 105.14C211.869 105.14 210.689 104.651 209.819 103.781C208.949 102.911 208.46 101.731 208.46 100.5V100.5Z" fill="#FF7262"/>
</g>
<defs>
<clipPath id="clip0_47_7880">
<rect width="58" height="58" fill="white" transform="translate(181 80)"/>
</clipPath>
</defs>
</svg>
